<svg xmlns="http://www.w3.org/2000/svg" xmlns:xlink="http://www.w3.org/1999/xlink" width="500" zoomAndPan="magnify" viewBox="0 0 375 374.999991" height="500" preserveAspectRatio="xMidYMid meet" version="1.0"><defs><clipPath id="id1"><path d="M 0 51.09375 L 56 51.09375 L 56 108 L 0 108 Z M 0 51.09375 " clip-rule="nonzero"/></clipPath><clipPath id="id2"><path d="M 171 51.09375 L 228 51.09375 L 228 108 L 171 108 Z M 171 51.09375 " clip-rule="nonzero"/></clipPath></defs><path fill="#efada3" d="M 365.875 167.753906 C 365.75 164.554688 365.324219 161.390625 364.589844 158.273438 C 363.859375 155.152344 362.835938 152.132812 361.523438 149.207031 C 360.210938 146.285156 358.628906 143.515625 356.785156 140.894531 C 354.9375 138.277344 352.859375 135.859375 350.546875 133.640625 C 350.175781 133.28125 349.785156 132.921875 349.398438 132.5625 L 282.355469 132.59375 C 279.878906 134.832031 277.652344 137.289062 275.667969 139.972656 C 273.683594 142.65625 271.988281 145.511719 270.574219 148.535156 C 269.164062 151.558594 268.066406 154.691406 267.28125 157.933594 C 266.496094 161.175781 266.042969 164.464844 265.914062 167.800781 L 261.484375 319.375 L 370.425781 319.324219 Z M 365.875 167.753906 " fill-opacity="1" fill-rule="nonzero"/><path fill="#d4e1f4" d="M 348.652344 190.4375 C 348.703125 190.289062 348.746094 190.136719 348.78125 189.980469 C 348.742188 190.132812 348.695312 190.285156 348.652344 190.4375 Z M 348.652344 190.4375 " fill-opacity="1" fill-rule="nonzero"/><path fill="#d4e1f4" d="M 347.875 192.476562 C 348.054688 192.070312 348.230469 191.652344 348.382812 191.230469 C 348.230469 191.660156 348.0625 192.070312 347.875 192.476562 Z M 347.875 192.476562 " fill-opacity="1" fill-rule="nonzero"/><path fill="#d4e1f4" d="M 346.953125 194.207031 C 347.195312 193.816406 347.417969 193.414062 347.621094 193 C 347.417969 193.414062 347.195312 193.816406 346.953125 194.207031 Z M 346.953125 194.207031 " fill-opacity="1" fill-rule="nonzero"/><path fill="#d4e1f4" d="M 340.496094 200.371094 C 341.945312 199.574219 343.257812 198.59375 344.429688 197.425781 C 343.261719 198.601562 341.953125 199.582031 340.496094 200.371094 Z M 340.496094 200.371094 " fill-opacity="1" fill-rule="nonzero"/><path fill="#d4e1f4" d="M 294.367188 201.671875 C 294.515625 201.726562 294.667969 201.769531 294.824219 201.804688 C 294.667969 201.769531 294.515625 201.726562 294.367188 201.671875 Z M 294.367188 201.671875 " fill-opacity="1" fill-rule="nonzero"/><path fill="#d4e1f4" d="M 284.589844 193.78125 C 284.808594 194.175781 285.054688 194.558594 285.296875 194.921875 C 285.046875 194.550781 284.808594 194.167969 284.589844 193.78125 Z M 284.589844 193.78125 " fill-opacity="1" fill-rule="nonzero"/><path fill="#d4e1f4" d="M 283.414062 191.246094 C 283.667969 191.941406 283.96875 192.613281 284.3125 193.269531 C 283.96875 192.613281 283.671875 191.941406 283.414062 191.246094 Z M 283.414062 191.246094 " fill-opacity="1" fill-rule="nonzero"/><path fill="#cc928b" d="M 282.355469 132.59375 C 279.878906 134.832031 277.652344 137.289062 275.667969 139.972656 C 273.683594 142.65625 271.988281 145.511719 270.574219 148.535156 C 269.164062 151.558594 268.066406 154.691406 267.28125 157.933594 C 266.496094 161.175781 266.042969 164.464844 265.914062 167.800781 L 261.484375 319.375 L 284.351562 319.363281 L 288.78125 167.800781 C 288.90625 164.464844 289.363281 161.175781 290.148438 157.933594 C 290.933594 154.691406 292.03125 151.558594 293.441406 148.535156 C 294.855469 145.511719 296.550781 142.65625 298.535156 139.972656 C 300.515625 137.289062 302.746094 134.832031 305.222656 132.59375 Z M 282.355469 132.59375 " fill-opacity="1" fill-rule="nonzero"/><path fill="#f7dced" d="M 349.390625 137.695312 L 349.421875 185.351562 C 349.421875 185.910156 349.394531 186.46875 349.339844 187.023438 C 349.285156 187.582031 349.203125 188.132812 349.09375 188.679688 C 348.988281 189.230469 348.851562 189.773438 348.691406 190.308594 C 348.527344 190.84375 348.339844 191.367188 348.125 191.886719 C 347.914062 192.402344 347.675781 192.90625 347.410156 193.402344 C 347.148438 193.894531 346.863281 194.375 346.550781 194.839844 C 346.242188 195.304688 345.910156 195.753906 345.554688 196.183594 C 345.199219 196.617188 344.824219 197.03125 344.429688 197.425781 C 344.035156 197.824219 343.621094 198.199219 343.191406 198.554688 C 342.757812 198.910156 342.308594 199.242188 341.84375 199.550781 C 341.382812 199.863281 340.902344 200.152344 340.410156 200.414062 C 339.917969 200.679688 339.414062 200.917969 338.894531 201.132812 C 338.378906 201.347656 337.855469 201.535156 337.320312 201.695312 C 336.785156 201.859375 336.242188 201.996094 335.695312 202.105469 C 335.148438 202.214844 334.59375 202.296875 334.039062 202.351562 C 333.484375 202.40625 332.925781 202.433594 332.367188 202.433594 L 299.449219 202.449219 C 298.890625 202.449219 298.332031 202.421875 297.777344 202.367188 C 297.21875 202.3125 296.667969 202.230469 296.121094 202.121094 C 295.570312 202.015625 295.03125 201.878906 294.496094 201.714844 C 293.960938 201.554688 293.4375 201.367188 292.917969 201.152344 C 292.402344 200.9375 291.898438 200.699219 291.40625 200.4375 C 290.914062 200.171875 290.433594 199.886719 289.96875 199.574219 C 289.503906 199.265625 289.054688 198.933594 288.625 198.578125 C 288.191406 198.222656 287.777344 197.847656 287.382812 197.453125 C 286.988281 197.058594 286.613281 196.644531 286.257812 196.210938 C 285.902344 195.78125 285.570312 195.332031 285.257812 194.867188 C 284.949219 194.402344 284.660156 193.921875 284.398438 193.429688 C 284.132812 192.9375 283.894531 192.433594 283.679688 191.917969 C 283.46875 191.398438 283.277344 190.875 283.117188 190.339844 C 282.953125 189.804688 282.816406 189.261719 282.710938 188.714844 C 282.601562 188.164062 282.519531 187.613281 282.460938 187.058594 C 282.40625 186.5 282.378906 185.941406 282.378906 185.382812 L 282.347656 138.332031 C 282.339844 119.757812 297.515625 104.0625 316.078125 104.175781 C 317.171875 104.179688 318.261719 104.242188 319.347656 104.355469 C 320.4375 104.46875 321.515625 104.636719 322.585938 104.855469 C 323.65625 105.074219 324.714844 105.34375 325.757812 105.667969 C 326.804688 105.988281 327.828125 106.363281 328.835938 106.785156 C 329.84375 107.210938 330.828125 107.679688 331.792969 108.199219 C 332.753906 108.71875 333.6875 109.285156 334.59375 109.894531 C 335.5 110.507812 336.375 111.160156 337.21875 111.859375 C 338.058594 112.554688 338.867188 113.289062 339.636719 114.066406 C 340.410156 114.839844 341.140625 115.652344 341.832031 116.5 C 342.523438 117.347656 343.171875 118.226562 343.777344 119.136719 C 344.382812 120.046875 344.941406 120.984375 345.457031 121.949219 C 345.96875 122.914062 346.433594 123.902344 346.851562 124.914062 C 347.269531 125.925781 347.636719 126.953125 347.953125 128 C 348.269531 129.046875 348.535156 130.109375 348.746094 131.179688 C 348.960938 132.253906 349.121094 133.335938 349.226562 134.421875 C 349.335938 135.511719 349.390625 136.601562 349.390625 137.695312 Z M 349.390625 137.695312 " fill-opacity="1" fill-rule="nonzero"/><path fill="#d8c3d1" d="M 305.242188 185.378906 L 305.210938 138.328125 C 305.21875 136.59375 305.355469 134.871094 305.617188 133.160156 C 305.882812 131.449219 306.277344 129.765625 306.792969 128.113281 C 307.3125 126.460938 307.953125 124.855469 308.714844 123.296875 C 309.472656 121.742188 310.347656 120.25 311.332031 118.824219 C 312.316406 117.398438 313.402344 116.058594 314.589844 114.796875 C 315.777344 113.535156 317.054688 112.371094 318.417969 111.300781 C 319.78125 110.234375 321.214844 109.273438 322.722656 108.421875 C 324.230469 107.566406 325.792969 106.832031 327.414062 106.21875 C 323.753906 104.875 319.976562 104.195312 316.078125 104.171875 C 297.515625 104.058594 282.339844 119.753906 282.347656 138.328125 L 282.378906 185.382812 C 282.378906 185.941406 282.40625 186.5 282.460938 187.054688 C 282.515625 187.609375 282.597656 188.164062 282.707031 188.710938 C 282.816406 189.261719 282.953125 189.800781 283.113281 190.335938 C 283.277344 190.871094 283.464844 191.398438 283.679688 191.914062 C 283.894531 192.429688 284.132812 192.933594 284.398438 193.429688 C 284.660156 193.921875 284.949219 194.398438 285.257812 194.863281 C 285.570312 195.328125 285.902344 195.777344 286.257812 196.210938 C 286.609375 196.640625 286.984375 197.054688 287.382812 197.453125 C 287.777344 197.847656 288.191406 198.222656 288.621094 198.574219 C 289.054688 198.929688 289.503906 199.261719 289.96875 199.574219 C 290.433594 199.882812 290.910156 200.171875 291.402344 200.433594 C 291.898438 200.699219 292.402344 200.9375 292.917969 201.148438 C 293.433594 201.363281 293.960938 201.550781 294.496094 201.714844 C 295.027344 201.875 295.570312 202.011719 296.117188 202.121094 C 296.667969 202.230469 297.21875 202.3125 297.773438 202.367188 C 298.332031 202.421875 298.886719 202.445312 299.449219 202.445312 L 321.933594 202.4375 C 321.382812 202.425781 320.832031 202.386719 320.285156 202.320312 C 319.738281 202.257812 319.195312 202.164062 318.660156 202.046875 C 318.121094 201.929688 317.589844 201.785156 317.066406 201.617188 C 316.542969 201.449219 316.027344 201.253906 315.519531 201.035156 C 315.015625 200.816406 314.523438 200.570312 314.039062 200.304688 C 313.558594 200.039062 313.089844 199.75 312.636719 199.4375 C 312.183594 199.125 311.746094 198.789062 311.324219 198.4375 C 310.902344 198.082031 310.5 197.707031 310.113281 197.3125 C 309.726562 196.917969 309.363281 196.507812 309.015625 196.078125 C 308.671875 195.648438 308.347656 195.203125 308.046875 194.742188 C 307.742188 194.28125 307.464844 193.808594 307.207031 193.320312 C 306.949219 192.832031 306.71875 192.335938 306.511719 191.824219 C 306.300781 191.3125 306.117188 190.792969 305.960938 190.265625 C 305.800781 189.738281 305.671875 189.203125 305.5625 188.664062 C 305.457031 188.121094 305.378906 187.578125 305.324219 187.03125 C 305.269531 186.480469 305.246094 185.929688 305.242188 185.378906 Z M 305.242188 185.378906 " fill-opacity="1" fill-rule="nonzero"/><g clip-path="url(#id1)"><path fill="#284268" d="M 9.144531 103.183594 L 9.144531 60.3125 L 51.3125 60.3125 C 51.609375 60.3125 51.910156 60.285156 52.203125 60.226562 C 52.496094 60.167969 52.785156 60.082031 53.0625 59.964844 C 53.339844 59.851562 53.601562 59.710938 53.851562 59.542969 C 54.101562 59.375 54.332031 59.1875 54.542969 58.972656 C 54.757812 58.761719 54.945312 58.53125 55.113281 58.28125 C 55.28125 58.03125 55.421875 57.765625 55.535156 57.488281 C 55.652344 57.210938 55.738281 56.925781 55.796875 56.628906 C 55.855469 56.335938 55.882812 56.039062 55.882812 55.738281 C 55.882812 55.4375 55.855469 55.140625 55.796875 54.84375 C 55.738281 54.550781 55.652344 54.265625 55.535156 53.988281 C 55.421875 53.710938 55.28125 53.445312 55.113281 53.195312 C 54.945312 52.945312 54.757812 52.714844 54.542969 52.503906 C 54.332031 52.289062 54.101562 52.101562 53.851562 51.933594 C 53.601562 51.765625 53.339844 51.625 53.0625 51.511719 C 52.785156 51.394531 52.496094 51.308594 52.203125 51.25 C 51.910156 51.191406 51.609375 51.160156 51.3125 51.160156 L 4.574219 51.160156 C 4.273438 51.160156 3.976562 51.191406 3.679688 51.25 C 3.386719 51.308594 3.101562 51.394531 2.824219 51.511719 C 2.546875 51.625 2.28125 51.765625 2.03125 51.933594 C 1.78125 52.101562 1.550781 52.289062 1.339844 52.503906 C 1.128906 52.714844 0.9375 52.945312 0.769531 53.195312 C 0.605469 53.445312 0.464844 53.710938 0.347656 53.988281 C 0.234375 54.265625 0.144531 54.550781 0.0859375 54.84375 C 0.0273438 55.140625 0 55.4375 0 55.738281 L 0 103.183594 C 0 103.484375 0.0273438 103.78125 0.0859375 104.078125 C 0.144531 104.371094 0.234375 104.65625 0.347656 104.9375 C 0.464844 105.214844 0.605469 105.476562 0.769531 105.726562 C 0.9375 105.976562 1.128906 106.207031 1.339844 106.421875 C 1.550781 106.632812 1.78125 106.824219 2.03125 106.988281 C 2.28125 107.15625 2.546875 107.296875 2.824219 107.414062 C 3.101562 107.527344 3.386719 107.613281 3.679688 107.671875 C 3.976562 107.730469 4.273438 107.761719 4.574219 107.761719 C 4.875 107.761719 5.171875 107.730469 5.464844 107.671875 C 5.761719 107.613281 6.046875 107.527344 6.324219 107.414062 C 6.601562 107.296875 6.863281 107.15625 7.113281 106.988281 C 7.363281 106.824219 7.59375 106.632812 7.808594 106.421875 C 8.019531 106.207031 8.207031 105.976562 8.375 105.726562 C 8.542969 105.476562 8.683594 105.214844 8.796875 104.9375 C 8.914062 104.65625 9 104.371094 9.058594 104.078125 C 9.117188 103.78125 9.144531 103.484375 9.144531 103.183594 Z M 9.144531 103.183594 " fill-opacity="1" fill-rule="nonzero"/></g><g clip-path="url(#id2)"><path fill="#284268" d="M 222.839844 107.761719 C 223.140625 107.761719 223.4375 107.730469 223.734375 107.671875 C 224.027344 107.613281 224.3125 107.527344 224.589844 107.414062 C 224.867188 107.296875 225.132812 107.15625 225.382812 106.988281 C 225.632812 106.824219 225.863281 106.632812 226.074219 106.421875 C 226.285156 106.207031 226.476562 105.976562 226.644531 105.726562 C 226.808594 105.476562 226.949219 105.214844 227.066406 104.9375 C 227.179688 104.65625 227.265625 104.371094 227.324219 104.078125 C 227.382812 103.78125 227.414062 103.484375 227.414062 103.183594 L 227.414062 55.738281 C 227.414062 55.4375 227.382812 55.140625 227.324219 54.84375 C 227.265625 54.550781 227.179688 54.265625 227.066406 53.988281 C 226.949219 53.710938 226.808594 53.445312 226.644531 53.195312 C 226.476562 52.945312 226.285156 52.714844 226.074219 52.503906 C 225.863281 52.289062 225.632812 52.101562 225.382812 51.933594 C 225.132812 51.765625 224.867188 51.625 224.589844 51.511719 C 224.3125 51.394531 224.027344 51.308594 223.734375 51.25 C 223.4375 51.191406 223.140625 51.160156 222.839844 51.160156 L 176.105469 51.160156 C 175.804688 51.160156 175.507812 51.191406 175.210938 51.25 C 174.917969 51.308594 174.632812 51.394531 174.355469 51.511719 C 174.074219 51.625 173.8125 51.765625 173.5625 51.933594 C 173.3125 52.101562 173.082031 52.289062 172.871094 52.503906 C 172.65625 52.714844 172.46875 52.945312 172.300781 53.195312 C 172.132812 53.445312 171.992188 53.710938 171.878906 53.988281 C 171.761719 54.265625 171.675781 54.550781 171.617188 54.84375 C 171.558594 55.140625 171.53125 55.4375 171.53125 55.738281 C 171.53125 56.039062 171.558594 56.335938 171.617188 56.628906 C 171.675781 56.925781 171.761719 57.210938 171.878906 57.488281 C 171.992188 57.765625 172.132812 58.03125 172.300781 58.28125 C 172.46875 58.53125 172.65625 58.761719 172.871094 58.972656 C 173.082031 59.1875 173.3125 59.375 173.5625 59.542969 C 173.8125 59.710938 174.074219 59.851562 174.355469 59.964844 C 174.632812 60.082031 174.917969 60.167969 175.210938 60.226562 C 175.507812 60.285156 175.804688 60.3125 176.105469 60.3125 L 218.265625 60.3125 L 218.265625 103.183594 C 218.265625 103.484375 218.296875 103.78125 218.355469 104.078125 C 218.414062 104.371094 218.5 104.65625 218.617188 104.9375 C 218.730469 105.214844 218.871094 105.476562 219.039062 105.726562 C 219.203125 105.976562 219.394531 106.207031 219.605469 106.421875 C 219.820312 106.632812 220.050781 106.824219 220.300781 106.988281 C 220.550781 107.15625 220.8125 107.296875 221.089844 107.414062 C 221.367188 107.527344 221.652344 107.613281 221.949219 107.671875 C 222.242188 107.730469 222.539062 107.761719 222.839844 107.761719 Z M 222.839844 107.761719 " fill-opacity="1" fill-rule="nonzero"/></g><path fill="#284268" d="M 59.632812 319.375 C 59.632812 319.074219 59.601562 318.773438 59.542969 318.480469 C 59.484375 318.1875 59.398438 317.898438 59.28125 317.621094 C 59.167969 317.34375 59.027344 317.082031 58.859375 316.832031 C 58.695312 316.582031 58.503906 316.351562 58.292969 316.136719 C 58.078125 315.925781 57.847656 315.734375 57.597656 315.566406 C 57.347656 315.402344 57.085938 315.261719 56.808594 315.144531 C 56.53125 315.03125 56.246094 314.945312 55.949219 314.886719 C 55.65625 314.828125 55.359375 314.796875 55.058594 314.796875 L 12.894531 314.796875 L 12.894531 271.925781 C 12.894531 271.625 12.863281 271.328125 12.804688 271.035156 C 12.746094 270.738281 12.660156 270.453125 12.546875 270.175781 C 12.429688 269.898438 12.289062 269.632812 12.125 269.382812 C 11.957031 269.132812 11.765625 268.902344 11.554688 268.691406 C 11.34375 268.476562 11.109375 268.289062 10.863281 268.121094 C 10.613281 267.953125 10.347656 267.8125 10.070312 267.699219 C 9.792969 267.582031 9.507812 267.496094 9.214844 267.4375 C 8.917969 267.378906 8.621094 267.351562 8.320312 267.351562 C 8.019531 267.351562 7.722656 267.378906 7.429688 267.4375 C 7.132812 267.496094 6.847656 267.582031 6.570312 267.699219 C 6.292969 267.8125 6.03125 267.953125 5.78125 268.121094 C 5.53125 268.289062 5.300781 268.476562 5.085938 268.691406 C 4.875 268.902344 4.683594 269.132812 4.519531 269.382812 C 4.351562 269.632812 4.210938 269.898438 4.097656 270.175781 C 3.980469 270.453125 3.894531 270.738281 3.835938 271.035156 C 3.777344 271.328125 3.746094 271.625 3.746094 271.925781 L 3.746094 319.375 C 3.746094 319.671875 3.777344 319.972656 3.835938 320.265625 C 3.894531 320.5625 3.980469 320.847656 4.097656 321.125 C 4.210938 321.402344 4.351562 321.664062 4.519531 321.914062 C 4.683594 322.164062 4.875 322.398438 5.085938 322.609375 C 5.300781 322.820312 5.53125 323.011719 5.78125 323.179688 C 6.03125 323.34375 6.292969 323.484375 6.570312 323.601562 C 6.847656 323.714844 7.132812 323.804688 7.429688 323.863281 C 7.722656 323.921875 8.019531 323.949219 8.320312 323.949219 L 55.058594 323.949219 C 55.359375 323.949219 55.65625 323.921875 55.949219 323.863281 C 56.246094 323.804688 56.53125 323.714844 56.808594 323.601562 C 57.085938 323.484375 57.347656 323.34375 57.597656 323.179688 C 57.847656 323.011719 58.078125 322.820312 58.292969 322.609375 C 58.503906 322.398438 58.695312 322.164062 58.859375 321.914062 C 59.027344 321.664062 59.167969 321.402344 59.28125 321.125 C 59.398438 320.847656 59.484375 320.5625 59.542969 320.265625 C 59.601562 319.972656 59.632812 319.671875 59.632812 319.375 Z M 59.632812 319.375 " fill-opacity="1" fill-rule="nonzero"/><path fill="#284268" d="M 176.105469 323.949219 L 222.839844 323.949219 C 223.140625 323.949219 223.4375 323.921875 223.734375 323.863281 C 224.027344 323.804688 224.3125 323.714844 224.589844 323.601562 C 224.867188 323.484375 225.132812 323.34375 225.382812 323.179688 C 225.632812 323.011719 225.863281 322.820312 226.074219 322.609375 C 226.285156 322.398438 226.476562 322.164062 226.644531 321.914062 C 226.808594 321.664062 226.949219 321.402344 227.066406 321.125 C 227.179688 320.847656 227.265625 320.5625 227.324219 320.265625 C 227.382812 319.972656 227.414062 319.671875 227.414062 319.375 L 227.414062 271.925781 C 227.414062 271.625 227.382812 271.328125 227.324219 271.035156 C 227.265625 270.738281 227.179688 270.453125 227.066406 270.175781 C 226.949219 269.898438 226.808594 269.632812 226.644531 269.382812 C 226.476562 269.132812 226.285156 268.902344 226.074219 268.691406 C 225.863281 268.476562 225.632812 268.289062 225.382812 268.121094 C 225.132812 267.953125 224.867188 267.8125 224.589844 267.699219 C 224.3125 267.582031 224.027344 267.496094 223.734375 267.4375 C 223.4375 267.378906 223.140625 267.351562 222.839844 267.351562 C 222.539062 267.351562 222.242188 267.378906 221.949219 267.4375 C 221.652344 267.496094 221.367188 267.582031 221.089844 267.699219 C 220.8125 267.8125 220.550781 267.953125 220.300781 268.121094 C 220.050781 268.289062 219.820312 268.476562 219.605469 268.691406 C 219.394531 268.902344 219.203125 269.132812 219.039062 269.382812 C 218.871094 269.632812 218.730469 269.898438 218.617188 270.175781 C 218.5 270.453125 218.414062 270.738281 218.355469 271.035156 C 218.296875 271.328125 218.265625 271.625 218.265625 271.925781 L 218.265625 314.796875 L 176.105469 314.796875 C 175.804688 314.796875 175.507812 314.828125 175.210938 314.886719 C 174.917969 314.945312 174.632812 315.03125 174.355469 315.144531 C 174.074219 315.261719 173.8125 315.402344 173.5625 315.566406 C 173.3125 315.734375 173.082031 315.925781 172.871094 316.136719 C 172.65625 316.351562 172.46875 316.582031 172.300781 316.832031 C 172.132812 317.082031 171.992188 317.34375 171.878906 317.621094 C 171.761719 317.898438 171.675781 318.1875 171.617188 318.480469 C 171.558594 318.773438 171.53125 319.074219 171.53125 319.375 C 171.53125 319.671875 171.558594 319.972656 171.617188 320.265625 C 171.675781 320.5625 171.761719 320.847656 171.878906 321.125 C 171.992188 321.402344 172.132812 321.664062 172.300781 321.914062 C 172.46875 322.164062 172.65625 322.398438 172.871094 322.609375 C 173.082031 322.820312 173.3125 323.011719 173.5625 323.179688 C 173.8125 323.34375 174.074219 323.484375 174.355469 323.601562 C 174.632812 323.714844 174.917969 323.804688 175.210938 323.863281 C 175.507812 323.921875 175.804688 323.949219 176.105469 323.949219 Z M 176.105469 323.949219 " fill-opacity="1" fill-rule="nonzero"/><path fill="#284268" d="M 286.558594 254.257812 L 344.074219 254.234375 C 344.375 254.234375 344.671875 254.203125 344.964844 254.144531 C 345.261719 254.085938 345.546875 254 345.824219 253.882812 C 346.101562 253.769531 346.363281 253.628906 346.613281 253.460938 C 346.863281 253.292969 347.09375 253.105469 347.308594 252.890625 C 347.519531 252.679688 347.707031 252.449219 347.875 252.199219 C 348.042969 251.949219 348.183594 251.683594 348.296875 251.40625 C 348.414062 251.128906 348.5 250.84375 348.558594 250.550781 C 348.617188 250.253906 348.644531 249.957031 348.644531 249.65625 C 348.644531 249.355469 348.617188 249.058594 348.558594 248.761719 C 348.5 248.46875 348.414062 248.183594 348.296875 247.90625 C 348.183594 247.628906 348.042969 247.363281 347.875 247.113281 C 347.707031 246.863281 347.519531 246.632812 347.308594 246.421875 C 347.09375 246.207031 346.863281 246.019531 346.613281 245.851562 C 346.363281 245.683594 346.101562 245.542969 345.824219 245.429688 C 345.546875 245.3125 345.261719 245.226562 344.964844 245.167969 C 344.671875 245.109375 344.375 245.078125 344.074219 245.078125 L 286.558594 245.105469 C 286.257812 245.105469 285.960938 245.132812 285.667969 245.191406 C 285.371094 245.25 285.085938 245.339844 284.808594 245.453125 C 284.53125 245.570312 284.269531 245.710938 284.019531 245.875 C 283.769531 246.042969 283.539062 246.234375 283.324219 246.445312 C 283.113281 246.65625 282.921875 246.890625 282.757812 247.140625 C 282.589844 247.390625 282.449219 247.652344 282.335938 247.929688 C 282.21875 248.207031 282.132812 248.492188 282.074219 248.789062 C 282.015625 249.082031 281.984375 249.382812 281.984375 249.679688 C 281.984375 249.980469 282.015625 250.28125 282.074219 250.574219 C 282.132812 250.867188 282.21875 251.15625 282.335938 251.433594 C 282.449219 251.710938 282.589844 251.972656 282.757812 252.222656 C 282.921875 252.472656 283.113281 252.703125 283.324219 252.917969 C 283.539062 253.128906 283.769531 253.320312 284.019531 253.488281 C 284.269531 253.652344 284.53125 253.792969 284.808594 253.910156 C 285.085938 254.023438 285.371094 254.109375 285.667969 254.167969 C 285.960938 254.226562 286.257812 254.257812 286.558594 254.257812 Z M 286.558594 254.257812 " fill-opacity="1" fill-rule="nonzero"/><path fill="#284268" d="M 285.421875 277.464844 L 342.9375 277.441406 C 343.234375 277.441406 343.535156 277.410156 343.828125 277.351562 C 344.121094 277.292969 344.410156 277.207031 344.6875 277.09375 C 344.964844 276.976562 345.226562 276.835938 345.476562 276.667969 C 345.726562 276.503906 345.957031 276.3125 346.167969 276.101562 C 346.382812 275.886719 346.570312 275.65625 346.738281 275.40625 C 346.90625 275.15625 347.046875 274.894531 347.160156 274.617188 C 347.277344 274.335938 347.363281 274.050781 347.421875 273.757812 C 347.480469 273.460938 347.507812 273.164062 347.507812 272.863281 C 347.507812 272.5625 347.480469 272.265625 347.421875 271.972656 C 347.363281 271.675781 347.277344 271.390625 347.160156 271.113281 C 347.046875 270.835938 346.90625 270.570312 346.738281 270.320312 C 346.570312 270.070312 346.382812 269.839844 346.167969 269.628906 C 345.957031 269.414062 345.726562 269.226562 345.476562 269.058594 C 345.226562 268.890625 344.964844 268.75 344.6875 268.636719 C 344.410156 268.519531 344.121094 268.433594 343.828125 268.375 C 343.535156 268.316406 343.234375 268.289062 342.9375 268.289062 L 285.421875 268.3125 C 285.121094 268.3125 284.824219 268.34375 284.53125 268.402344 C 284.234375 268.460938 283.949219 268.546875 283.671875 268.660156 C 283.394531 268.777344 283.132812 268.917969 282.882812 269.085938 C 282.632812 269.25 282.402344 269.441406 282.1875 269.652344 C 281.976562 269.867188 281.785156 270.097656 281.621094 270.347656 C 281.453125 270.597656 281.3125 270.859375 281.195312 271.136719 C 281.082031 271.414062 280.996094 271.703125 280.9375 271.996094 C 280.878906 272.292969 280.847656 272.589844 280.847656 272.890625 C 280.847656 273.191406 280.878906 273.488281 280.9375 273.78125 C 280.996094 274.078125 281.082031 274.363281 281.195312 274.640625 C 281.3125 274.917969 281.453125 275.183594 281.621094 275.433594 C 281.785156 275.679688 281.976562 275.914062 282.1875 276.125 C 282.402344 276.335938 282.632812 276.527344 282.882812 276.695312 C 283.132812 276.863281 283.394531 277.003906 283.671875 277.117188 C 283.949219 277.230469 284.234375 277.320312 284.53125 277.378906 C 284.824219 277.4375 285.121094 277.464844 285.421875 277.464844 Z M 285.421875 277.464844 " fill-opacity="1" fill-rule="nonzero"/><path fill="#284268" d="M 241.84375 248.429688 C 241.835938 248.730469 241.855469 249.027344 241.902344 249.324219 C 241.953125 249.621094 242.03125 249.910156 242.136719 250.191406 C 242.242188 250.472656 242.375 250.742188 242.535156 250.996094 C 242.691406 251.25 242.875 251.488281 243.082031 251.707031 C 243.285156 251.925781 243.511719 252.125 243.753906 252.296875 C 244 252.472656 244.257812 252.621094 244.53125 252.746094 C 244.804688 252.871094 245.089844 252.964844 245.382812 253.035156 C 245.675781 253.101562 245.972656 253.140625 246.269531 253.148438 C 246.320312 253.148438 246.371094 253.148438 246.417969 253.148438 C 246.710938 253.148438 247.003906 253.121094 247.292969 253.066406 C 247.582031 253.007812 247.859375 252.925781 248.132812 252.8125 C 248.40625 252.703125 248.664062 252.566406 248.914062 252.40625 C 249.160156 252.246094 249.386719 252.0625 249.597656 251.859375 C 249.808594 251.652344 250 251.429688 250.167969 251.1875 C 250.335938 250.949219 250.480469 250.691406 250.597656 250.421875 C 250.71875 250.152344 250.808594 249.875 250.875 249.589844 C 250.941406 249.300781 250.976562 249.011719 250.984375 248.71875 L 252.433594 202.769531 C 252.441406 202.46875 252.421875 202.171875 252.371094 201.875 C 252.324219 201.578125 252.246094 201.289062 252.136719 201.011719 C 252.03125 200.730469 251.898438 200.460938 251.742188 200.207031 C 251.582031 199.953125 251.398438 199.714844 251.195312 199.5 C 250.988281 199.28125 250.761719 199.082031 250.519531 198.910156 C 250.277344 198.734375 250.015625 198.585938 249.742188 198.460938 C 249.46875 198.339844 249.1875 198.242188 248.894531 198.175781 C 248.601562 198.109375 248.308594 198.070312 248.007812 198.058594 C 247.707031 198.050781 247.410156 198.070312 247.113281 198.121094 C 246.820312 198.167969 246.53125 198.246094 246.25 198.351562 C 245.96875 198.457031 245.703125 198.589844 245.445312 198.75 C 245.191406 198.90625 244.957031 199.089844 244.738281 199.292969 C 244.519531 199.5 244.320312 199.722656 244.148438 199.96875 C 243.972656 200.210938 243.824219 200.46875 243.699219 200.742188 C 243.574219 201.015625 243.480469 201.300781 243.410156 201.589844 C 243.34375 201.882812 243.304688 202.179688 243.292969 202.480469 Z M 241.84375 248.429688 " fill-opacity="1" fill-rule="nonzero"/><path fill="#284268" d="M 244.183594 174.261719 L 243.957031 181.5 C 243.945312 181.800781 243.964844 182.101562 244.015625 182.394531 C 244.066406 182.691406 244.140625 182.980469 244.25 183.261719 C 244.355469 183.542969 244.488281 183.8125 244.644531 184.066406 C 244.804688 184.320312 244.988281 184.558594 245.191406 184.777344 C 245.398438 184.996094 245.621094 185.195312 245.867188 185.367188 C 246.113281 185.542969 246.371094 185.691406 246.644531 185.816406 C 246.917969 185.941406 247.199219 186.035156 247.492188 186.105469 C 247.785156 186.171875 248.082031 186.210938 248.382812 186.21875 L 248.53125 186.21875 C 248.824219 186.21875 249.113281 186.191406 249.402344 186.136719 C 249.691406 186.078125 249.972656 185.996094 250.246094 185.882812 C 250.519531 185.773438 250.777344 185.636719 251.023438 185.476562 C 251.269531 185.316406 251.5 185.132812 251.710938 184.929688 C 251.921875 184.722656 252.109375 184.5 252.277344 184.257812 C 252.445312 184.019531 252.589844 183.761719 252.710938 183.492188 C 252.828125 183.222656 252.921875 182.945312 252.984375 182.660156 C 253.050781 182.371094 253.089844 182.082031 253.097656 181.789062 L 253.328125 174.546875 C 253.335938 174.246094 253.316406 173.949219 253.265625 173.652344 C 253.214844 173.359375 253.136719 173.070312 253.03125 172.789062 C 252.925781 172.507812 252.792969 172.242188 252.632812 171.988281 C 252.472656 171.734375 252.292969 171.496094 252.085938 171.277344 C 251.878906 171.058594 251.65625 170.863281 251.410156 170.6875 C 251.167969 170.515625 250.910156 170.367188 250.636719 170.242188 C 250.363281 170.117188 250.078125 170.023438 249.785156 169.957031 C 249.496094 169.886719 249.199219 169.847656 248.898438 169.839844 C 248.601562 169.832031 248.300781 169.851562 248.007812 169.898438 C 247.710938 169.949219 247.421875 170.027344 247.140625 170.132812 C 246.859375 170.238281 246.59375 170.371094 246.339844 170.527344 C 246.085938 170.6875 245.847656 170.867188 245.628906 171.074219 C 245.410156 171.277344 245.214844 171.503906 245.039062 171.746094 C 244.863281 171.992188 244.714844 172.25 244.589844 172.523438 C 244.464844 172.796875 244.371094 173.078125 244.300781 173.371094 C 244.234375 173.664062 244.195312 173.957031 244.183594 174.257812 Z M 244.183594 174.261719 " fill-opacity="1" fill-rule="nonzero"/><path fill="#284268" d="M 353.71875 130.339844 C 353.523438 130.152344 353.320312 129.96875 353.121094 129.78125 C 352.894531 128.730469 352.625 127.691406 352.308594 126.660156 C 351.996094 125.632812 351.636719 124.621094 351.238281 123.621094 C 350.835938 122.621094 350.398438 121.640625 349.914062 120.679688 C 349.433594 119.71875 348.910156 118.78125 348.347656 117.863281 C 347.785156 116.945312 347.1875 116.054688 346.550781 115.1875 C 345.914062 114.320312 345.242188 113.480469 344.535156 112.671875 C 343.824219 111.859375 343.085938 111.082031 342.3125 110.335938 C 341.539062 109.585938 340.734375 108.875 339.902344 108.195312 C 339.070312 107.515625 338.207031 106.871094 337.320312 106.265625 C 336.433594 105.65625 335.523438 105.089844 334.585938 104.558594 C 333.652344 104.027344 332.695312 103.539062 331.71875 103.089844 C 330.742188 102.640625 329.746094 102.234375 328.734375 101.867188 C 327.722656 101.5 326.699219 101.179688 325.660156 100.902344 C 324.621094 100.621094 323.574219 100.386719 322.515625 100.195312 C 321.457031 100.007812 320.394531 99.859375 319.324219 99.761719 C 318.253906 99.660156 317.179688 99.605469 316.105469 99.59375 C 313.617188 99.585938 311.152344 99.824219 308.710938 100.308594 C 306.269531 100.789062 303.898438 101.507812 301.597656 102.460938 C 299.300781 103.414062 297.117188 104.582031 295.050781 105.96875 C 292.984375 107.355469 291.074219 108.933594 289.320312 110.699219 C 286.707031 113.308594 284.507812 116.226562 282.714844 119.453125 C 280.921875 122.683594 279.613281 126.09375 278.777344 129.691406 C 276.15625 132.132812 273.796875 134.804688 271.695312 137.710938 C 269.597656 140.617188 267.800781 143.695312 266.304688 146.953125 C 264.808594 150.210938 263.644531 153.582031 262.808594 157.070312 C 261.976562 160.554688 261.488281 164.089844 261.34375 167.671875 L 258.710938 257.878906 C 258.703125 258.179688 258.722656 258.476562 258.773438 258.773438 C 258.824219 259.070312 258.902344 259.359375 259.007812 259.640625 C 259.117188 259.917969 259.25 260.1875 259.410156 260.441406 C 259.566406 260.695312 259.75 260.933594 259.957031 261.152344 C 260.164062 261.371094 260.386719 261.566406 260.632812 261.738281 C 260.878906 261.914062 261.136719 262.0625 261.410156 262.183594 C 261.683594 262.308594 261.96875 262.402344 262.261719 262.46875 C 262.554688 262.539062 262.851562 262.574219 263.148438 262.585938 C 263.449219 262.59375 263.75 262.574219 264.042969 262.523438 C 264.339844 262.472656 264.628906 262.394531 264.910156 262.289062 C 265.191406 262.179688 265.457031 262.046875 265.710938 261.886719 C 265.964844 261.730469 266.203125 261.546875 266.421875 261.339844 C 266.640625 261.132812 266.835938 260.910156 267.011719 260.664062 C 267.183594 260.417969 267.332031 260.160156 267.457031 259.886719 C 267.578125 259.609375 267.675781 259.328125 267.742188 259.035156 C 267.808594 258.742188 267.847656 258.445312 267.855469 258.144531 L 270.488281 167.976562 C 270.652344 163.890625 271.355469 159.898438 272.589844 156 C 273.828125 152.101562 275.558594 148.4375 277.78125 145.003906 L 277.808594 185.386719 C 277.808594 186.09375 277.84375 186.800781 277.914062 187.507812 C 277.984375 188.210938 278.089844 188.914062 278.230469 189.605469 C 278.367188 190.300781 278.542969 190.988281 278.746094 191.667969 C 278.953125 192.34375 279.191406 193.011719 279.464844 193.664062 C 279.734375 194.320312 280.039062 194.957031 280.375 195.582031 C 280.707031 196.207031 281.070312 196.816406 281.464844 197.402344 C 281.859375 197.992188 282.28125 198.5625 282.730469 199.109375 C 283.179688 199.65625 283.65625 200.179688 284.15625 200.679688 C 284.65625 201.183594 285.179688 201.65625 285.726562 202.105469 C 286.273438 202.558594 286.84375 202.976562 287.433594 203.371094 C 288.019531 203.765625 288.628906 204.128906 289.25 204.464844 C 289.875 204.796875 290.515625 205.101562 291.167969 205.371094 C 291.824219 205.644531 292.488281 205.882812 293.167969 206.089844 C 293.84375 206.292969 294.53125 206.46875 295.226562 206.605469 C 295.917969 206.746094 296.617188 206.847656 297.324219 206.917969 C 298.027344 206.988281 298.734375 207.023438 299.441406 207.027344 L 299.453125 207.027344 L 332.371094 207.011719 C 333.078125 207.011719 333.785156 206.976562 334.492188 206.90625 C 335.195312 206.835938 335.894531 206.734375 336.589844 206.59375 C 337.285156 206.457031 337.972656 206.285156 338.652344 206.078125 C 339.328125 205.871094 339.996094 205.632812 340.648438 205.359375 C 341.304688 205.089844 341.945312 204.785156 342.570312 204.453125 C 343.195312 204.117188 343.800781 203.753906 344.390625 203.359375 C 344.980469 202.964844 345.546875 202.542969 346.09375 202.089844 C 346.640625 201.640625 347.167969 201.164062 347.667969 200.664062 C 348.167969 200.164062 348.644531 199.636719 349.09375 199.089844 C 349.542969 198.539062 349.964844 197.972656 350.355469 197.382812 C 350.75 196.792969 351.113281 196.183594 351.449219 195.558594 C 351.78125 194.933594 352.082031 194.292969 352.355469 193.636719 C 352.625 192.980469 352.863281 192.316406 353.066406 191.636719 C 353.273438 190.957031 353.445312 190.269531 353.582031 189.574219 C 353.722656 188.878906 353.824219 188.179688 353.894531 187.472656 C 353.960938 186.765625 353.996094 186.058594 353.996094 185.351562 L 353.96875 144.886719 C 356.214844 148.316406 357.960938 151.984375 359.207031 155.890625 C 360.453125 159.796875 361.152344 163.796875 361.304688 167.894531 L 365.71875 314.753906 L 266.203125 314.796875 L 266.742188 296.28125 C 266.753906 295.976562 266.730469 295.671875 266.679688 295.371094 C 266.625 295.066406 266.546875 294.773438 266.433594 294.488281 C 266.324219 294.203125 266.183594 293.933594 266.019531 293.675781 C 265.855469 293.417969 265.664062 293.179688 265.453125 292.957031 C 265.238281 292.738281 265.003906 292.542969 264.753906 292.371094 C 264.5 292.195312 264.234375 292.050781 263.953125 291.933594 C 263.667969 291.8125 263.378906 291.722656 263.078125 291.664062 C 262.777344 291.601562 262.476562 291.570312 262.171875 291.570312 C 261.875 291.570312 261.582031 291.597656 261.292969 291.65625 C 261.003906 291.710938 260.722656 291.796875 260.449219 291.90625 C 260.175781 292.015625 259.917969 292.152344 259.671875 292.3125 C 259.421875 292.476562 259.195312 292.660156 258.984375 292.863281 C 258.769531 293.070312 258.582031 293.292969 258.414062 293.535156 C 258.246094 293.777344 258.101562 294.035156 257.984375 294.304688 C 257.863281 294.574219 257.773438 294.851562 257.707031 295.140625 C 257.640625 295.425781 257.605469 295.71875 257.597656 296.011719 L 256.921875 319.144531 C 256.890625 319.804688 256.992188 320.4375 257.226562 321.054688 C 257.394531 321.480469 257.625 321.871094 257.910156 322.230469 C 258.199219 322.589844 258.53125 322.898438 258.910156 323.15625 C 259.292969 323.414062 259.699219 323.613281 260.140625 323.746094 C 260.578125 323.882812 261.027344 323.949219 261.484375 323.949219 L 370.425781 323.898438 C 370.734375 323.898438 371.035156 323.867188 371.335938 323.808594 C 371.636719 323.746094 371.925781 323.65625 372.210938 323.539062 C 372.492188 323.417969 372.757812 323.273438 373.011719 323.101562 C 373.265625 322.925781 373.496094 322.730469 373.710938 322.511719 C 373.921875 322.289062 374.113281 322.050781 374.277344 321.792969 C 374.445312 321.535156 374.582031 321.265625 374.691406 320.980469 C 374.804688 320.691406 374.882812 320.398438 374.9375 320.097656 C 374.988281 319.796875 375.007812 319.492188 375 319.183594 L 370.441406 167.574219 C 370.3125 164.078125 369.851562 160.625 369.054688 157.21875 C 368.261719 153.8125 367.144531 150.511719 365.714844 147.320312 C 364.28125 144.132812 362.554688 141.105469 360.535156 138.25 C 358.519531 135.394531 356.246094 132.757812 353.71875 130.339844 Z M 341.191406 194.191406 C 340.023438 195.367188 338.675781 196.273438 337.144531 196.90625 C 335.613281 197.542969 334.019531 197.855469 332.363281 197.851562 L 299.445312 197.867188 L 299.4375 197.867188 C 298.621094 197.867188 297.808594 197.785156 297.003906 197.625 C 296.199219 197.464844 295.417969 197.230469 294.660156 196.914062 C 293.902344 196.601562 293.183594 196.21875 292.503906 195.761719 C 291.820312 195.304688 291.191406 194.789062 290.609375 194.207031 C 290.03125 193.628906 289.511719 192.996094 289.058594 192.316406 C 288.601562 191.632812 288.214844 190.914062 287.902344 190.15625 C 287.589844 189.398438 287.351562 188.617188 287.191406 187.8125 C 287.03125 187.007812 286.953125 186.195312 286.953125 185.375 L 286.921875 138.324219 C 286.929688 136.355469 287.132812 134.410156 287.523438 132.484375 C 287.914062 130.558594 288.492188 128.691406 289.25 126.878906 C 290.007812 125.066406 290.9375 123.34375 292.03125 121.710938 C 293.128906 120.082031 294.375 118.574219 295.765625 117.1875 C 297.082031 115.855469 298.515625 114.664062 300.066406 113.617188 C 301.617188 112.570312 303.253906 111.683594 304.980469 110.957031 C 306.707031 110.234375 308.484375 109.683594 310.320312 109.3125 C 312.152344 108.9375 314.007812 108.75 315.878906 108.742188 L 316.046875 108.742188 C 316.992188 108.753906 317.933594 108.804688 318.871094 108.90625 C 319.808594 109.007812 320.738281 109.152344 321.664062 109.34375 C 322.585938 109.535156 323.5 109.769531 324.402344 110.050781 C 325.300781 110.328125 326.1875 110.652344 327.058594 111.019531 C 327.925781 111.386719 328.777344 111.792969 329.605469 112.242188 C 330.433594 112.691406 331.242188 113.179688 332.023438 113.707031 C 332.804688 114.238281 333.558594 114.800781 334.285156 115.402344 C 335.015625 116.003906 335.710938 116.640625 336.375 117.308594 C 337.039062 117.980469 337.671875 118.679688 338.269531 119.410156 C 338.863281 120.140625 339.425781 120.898438 339.949219 121.683594 C 340.472656 122.472656 340.953125 123.28125 341.398438 124.113281 C 341.84375 124.945312 342.246094 125.796875 342.605469 126.671875 C 342.96875 127.542969 343.285156 128.429688 343.558594 129.332031 C 343.835938 130.238281 344.066406 131.152344 344.25 132.078125 C 344.4375 133.003906 344.574219 133.933594 344.671875 134.875 C 344.765625 135.8125 344.8125 136.753906 344.816406 137.699219 L 344.847656 185.351562 C 344.851562 187.011719 344.539062 188.605469 343.90625 190.136719 C 343.269531 191.671875 342.367188 193.019531 341.191406 194.191406 Z M 341.191406 194.191406 " fill-opacity="1" fill-rule="nonzero"/><path fill="#284268" d="M 202.101562 212.414062 C 202.484375 212.414062 202.855469 212.367188 203.226562 212.273438 C 203.59375 212.179688 203.945312 212.042969 204.277344 211.859375 C 204.613281 211.679688 204.917969 211.460938 205.199219 211.203125 C 205.480469 210.945312 205.722656 210.65625 205.929688 210.339844 C 206.136719 210.019531 206.304688 209.683594 206.425781 209.320312 C 206.550781 208.960938 206.628906 208.59375 206.660156 208.214844 C 206.691406 207.835938 206.675781 207.457031 206.613281 207.082031 C 206.550781 206.707031 206.441406 206.347656 206.289062 206 C 199.3125 190.058594 194.574219 176.441406 193.914062 170.457031 C 189.558594 130.941406 155.648438 101.144531 116.207031 101.144531 C 97.269531 101.144531 78.144531 108.09375 63.972656 120.710938 C 63.746094 120.910156 63.546875 121.128906 63.363281 121.371094 C 63.183594 121.609375 63.027344 121.863281 62.894531 122.136719 C 62.765625 122.40625 62.660156 122.6875 62.585938 122.976562 C 62.507812 123.269531 62.460938 123.5625 62.445312 123.863281 C 62.425781 124.164062 62.4375 124.460938 62.480469 124.761719 C 62.523438 125.058594 62.59375 125.347656 62.691406 125.632812 C 62.789062 125.917969 62.914062 126.1875 63.066406 126.449219 C 63.21875 126.707031 63.394531 126.949219 63.59375 127.171875 C 63.792969 127.398438 64.011719 127.601562 64.253906 127.78125 C 64.492188 127.964844 64.746094 128.121094 65.019531 128.25 C 65.289062 128.382812 65.570312 128.484375 65.859375 128.5625 C 66.152344 128.636719 66.445312 128.683594 66.746094 128.699219 C 67.046875 128.71875 67.34375 128.707031 67.640625 128.664062 C 67.9375 128.621094 68.230469 128.550781 68.511719 128.453125 C 68.796875 128.355469 69.070312 128.230469 69.328125 128.078125 C 69.585938 127.925781 69.828125 127.75 70.050781 127.546875 C 82.546875 116.421875 99.511719 110.296875 116.207031 110.296875 C 150.976562 110.296875 180.980469 136.589844 184.824219 171.457031 C 185.921875 181.46875 194.34375 201.515625 197.910156 209.671875 C 198.089844 210.078125 198.324219 210.453125 198.609375 210.792969 C 198.898438 211.132812 199.226562 211.421875 199.597656 211.667969 C 199.972656 211.910156 200.371094 212.09375 200.796875 212.222656 C 201.222656 212.347656 201.65625 212.414062 202.101562 212.414062 Z M 202.101562 212.414062 " fill-opacity="1" fill-rule="nonzero"/><path fill="#284268" d="M 57.234375 255.527344 C 57.34375 255.808594 57.476562 256.074219 57.640625 256.328125 C 57.800781 256.582031 57.984375 256.816406 58.195312 257.03125 C 58.402344 257.25 58.628906 257.445312 58.875 257.617188 C 59.121094 257.789062 59.382812 257.933594 59.65625 258.054688 C 59.933594 258.175781 60.214844 258.269531 60.507812 258.332031 C 60.800781 258.398438 61.097656 258.433594 61.398438 258.441406 C 61.699219 258.445312 61.996094 258.421875 62.292969 258.371094 C 62.589844 258.316406 62.875 258.238281 63.15625 258.128906 C 63.4375 258.019531 63.703125 257.882812 63.957031 257.722656 C 64.207031 257.558594 64.445312 257.375 64.660156 257.167969 C 64.875 256.957031 65.070312 256.730469 65.242188 256.484375 C 65.414062 256.238281 65.5625 255.976562 65.683594 255.703125 C 65.800781 255.425781 65.894531 255.144531 65.960938 254.847656 C 66.023438 254.554688 66.058594 254.257812 66.066406 253.957031 C 66.070312 253.660156 66.050781 253.359375 65.996094 253.0625 C 65.945312 252.769531 65.863281 252.480469 65.753906 252.199219 C 55.761719 226.582031 49.308594 203.53125 47.582031 187.300781 C 47.167969 183.363281 47.097656 179.421875 47.367188 175.472656 C 47.636719 171.523438 48.242188 167.628906 49.1875 163.785156 C 50.128906 159.941406 51.398438 156.207031 52.988281 152.582031 C 54.578125 148.957031 56.46875 145.496094 58.65625 142.203125 C 58.820312 141.949219 58.960938 141.6875 59.074219 141.410156 C 59.1875 141.132812 59.269531 140.847656 59.328125 140.550781 C 59.382812 140.257812 59.410156 139.960938 59.410156 139.664062 C 59.410156 139.363281 59.378906 139.066406 59.316406 138.773438 C 59.257812 138.480469 59.171875 138.195312 59.054688 137.917969 C 58.941406 137.640625 58.796875 137.378906 58.632812 137.132812 C 58.464844 136.882812 58.273438 136.652344 58.0625 136.441406 C 57.851562 136.230469 57.621094 136.042969 57.371094 135.875 C 57.121094 135.710938 56.859375 135.570312 56.582031 135.457031 C 56.304688 135.34375 56.019531 135.257812 55.726562 135.199219 C 55.433594 135.140625 55.136719 135.109375 54.835938 135.109375 C 54.539062 135.109375 54.242188 135.140625 53.949219 135.199219 C 53.65625 135.253906 53.371094 135.339844 53.09375 135.457031 C 52.816406 135.570312 52.554688 135.710938 52.304688 135.875 C 52.054688 136.042969 51.824219 136.230469 51.613281 136.441406 C 51.398438 136.652344 51.210938 136.882812 51.042969 137.128906 C 48.5625 140.867188 46.417969 144.792969 44.617188 148.902344 C 42.8125 153.011719 41.375 157.246094 40.308594 161.601562 C 39.238281 165.960938 38.550781 170.378906 38.246094 174.855469 C 37.941406 179.332031 38.023438 183.804688 38.492188 188.265625 C 40.296875 205.285156 46.953125 229.171875 57.234375 255.527344 Z M 57.234375 255.527344 " fill-opacity="1" fill-rule="nonzero"/><path fill="#284268" d="M 86.804688 269.84375 C 87.183594 269.84375 87.558594 269.796875 87.929688 269.703125 C 88.300781 269.609375 88.652344 269.46875 88.984375 269.289062 C 89.320312 269.105469 89.628906 268.886719 89.90625 268.625 C 90.1875 268.367188 90.429688 268.078125 90.640625 267.757812 C 90.847656 267.4375 91.011719 267.097656 91.132812 266.734375 C 91.257812 266.375 91.332031 266.003906 91.363281 265.625 C 91.390625 265.242188 91.375 264.867188 91.308594 264.488281 C 91.246094 264.113281 91.132812 263.75 90.980469 263.402344 C 77.484375 233.070312 67.863281 202.578125 65.871094 183.832031 C 65.617188 181.425781 65.535156 179.011719 65.632812 176.59375 C 65.726562 174.175781 65.996094 171.777344 66.441406 169.398438 C 66.886719 167.019531 67.5 164.683594 68.285156 162.394531 C 69.066406 160.105469 70.011719 157.882812 71.121094 155.730469 C 72.226562 153.578125 73.480469 151.515625 74.886719 149.546875 C 76.292969 147.578125 77.835938 145.71875 79.511719 143.976562 C 81.1875 142.230469 82.980469 140.617188 84.890625 139.132812 C 86.800781 137.648438 88.808594 136.308594 90.914062 135.117188 C 91.179688 134.96875 91.425781 134.796875 91.65625 134.601562 C 91.886719 134.40625 92.09375 134.191406 92.28125 133.953125 C 92.46875 133.71875 92.632812 133.464844 92.769531 133.195312 C 92.90625 132.925781 93.015625 132.644531 93.097656 132.355469 C 93.179688 132.0625 93.230469 131.769531 93.253906 131.46875 C 93.277344 131.164062 93.269531 130.863281 93.234375 130.566406 C 93.199219 130.265625 93.132812 129.972656 93.039062 129.683594 C 92.945312 129.398438 92.824219 129.121094 92.671875 128.859375 C 92.523438 128.597656 92.351562 128.351562 92.152344 128.121094 C 91.957031 127.894531 91.738281 127.6875 91.5 127.503906 C 91.261719 127.316406 91.007812 127.15625 90.738281 127.023438 C 90.46875 126.886719 90.1875 126.78125 89.894531 126.699219 C 89.605469 126.621094 89.308594 126.570312 89.007812 126.550781 C 88.707031 126.53125 88.40625 126.539062 88.105469 126.578125 C 87.808594 126.617188 87.515625 126.683594 87.226562 126.78125 C 86.941406 126.878906 86.667969 127 86.40625 127.152344 C 83.917969 128.5625 81.539062 130.148438 79.28125 131.902344 C 77.019531 133.660156 74.898438 135.570312 72.914062 137.636719 C 70.929688 139.699219 69.105469 141.898438 67.445312 144.230469 C 65.78125 146.558594 64.292969 149 62.984375 151.546875 C 61.675781 154.09375 60.558594 156.722656 59.628906 159.429688 C 58.703125 162.140625 57.976562 164.902344 57.449219 167.71875 C 56.925781 170.535156 56.605469 173.371094 56.492188 176.234375 C 56.378906 179.097656 56.472656 181.949219 56.773438 184.800781 C 58.894531 204.730469 68.554688 235.507812 82.625 267.125 C 82.804688 267.53125 83.035156 267.902344 83.324219 268.238281 C 83.609375 268.574219 83.941406 268.863281 84.3125 269.105469 C 84.683594 269.347656 85.078125 269.53125 85.503906 269.65625 C 85.929688 269.78125 86.363281 269.84375 86.804688 269.84375 Z M 86.804688 269.84375 " fill-opacity="1" fill-rule="nonzero"/><path fill="#284268" d="M 187.503906 232.582031 C 187.640625 232.847656 187.796875 233.09375 187.980469 233.328125 C 188.164062 233.558594 188.367188 233.769531 188.59375 233.964844 C 188.816406 234.15625 189.058594 234.328125 189.3125 234.472656 C 189.570312 234.617188 189.839844 234.738281 190.121094 234.832031 C 190.402344 234.925781 190.6875 234.992188 190.980469 235.03125 C 191.273438 235.070312 191.566406 235.078125 191.863281 235.058594 C 192.160156 235.042969 192.449219 234.996094 192.734375 234.917969 C 193.019531 234.84375 193.296875 234.742188 193.5625 234.613281 C 193.828125 234.484375 194.082031 234.332031 194.316406 234.152344 C 194.554688 233.976562 194.769531 233.777344 194.96875 233.558594 C 195.167969 233.335938 195.34375 233.101562 195.496094 232.847656 C 195.648438 232.59375 195.773438 232.328125 195.875 232.046875 C 195.972656 231.769531 196.046875 231.484375 196.09375 231.191406 C 196.136719 230.898438 196.152344 230.605469 196.140625 230.308594 C 196.128906 230.015625 196.089844 229.722656 196.023438 229.433594 C 195.953125 229.148438 195.859375 228.867188 195.734375 228.597656 C 186.664062 209.824219 176.84375 185.039062 175.632812 174 C 173.558594 155.183594 163.757812 138.484375 149.40625 129.324219 C 144.097656 125.789062 137.574219 122.675781 129.464844 119.808594 C 129.179688 119.707031 128.890625 119.636719 128.59375 119.59375 C 128.296875 119.546875 127.996094 119.535156 127.695312 119.550781 C 127.398438 119.566406 127.101562 119.609375 126.808594 119.683594 C 126.519531 119.757812 126.238281 119.859375 125.964844 119.988281 C 125.695312 120.121094 125.4375 120.273438 125.199219 120.453125 C 124.957031 120.632812 124.734375 120.835938 124.535156 121.058594 C 124.332031 121.28125 124.15625 121.523438 124.003906 121.78125 C 123.847656 122.039062 123.722656 122.3125 123.621094 122.59375 C 123.523438 122.878906 123.449219 123.167969 123.40625 123.46875 C 123.363281 123.765625 123.351562 124.0625 123.367188 124.363281 C 123.382812 124.664062 123.429688 124.960938 123.503906 125.25 C 123.578125 125.542969 123.679688 125.824219 123.808594 126.09375 C 123.9375 126.367188 124.09375 126.621094 124.273438 126.863281 C 124.453125 127.105469 124.65625 127.324219 124.878906 127.527344 C 125.101562 127.726562 125.34375 127.902344 125.601562 128.058594 C 125.859375 128.210938 126.132812 128.335938 126.414062 128.4375 C 133.820312 131.054688 139.695312 133.847656 144.371094 136.96875 C 144.398438 136.984375 144.425781 137.003906 144.453125 137.019531 C 156.507812 144.699219 164.765625 158.898438 166.539062 175.003906 C 167.929688 187.632812 178.382812 213.703125 187.503906 232.582031 Z M 187.503906 232.582031 " fill-opacity="1" fill-rule="nonzero"/><path fill="#284268" d="M 178.691406 250.421875 C 178.886719 250.421875 179.082031 250.410156 179.273438 250.382812 C 179.46875 250.359375 179.660156 250.320312 179.847656 250.269531 C 180.039062 250.222656 180.222656 250.160156 180.40625 250.085938 C 180.585938 250.011719 180.761719 249.929688 180.933594 249.832031 C 181.101562 249.738281 181.265625 249.628906 181.421875 249.511719 C 181.578125 249.394531 181.726562 249.269531 181.867188 249.132812 C 182.007812 248.996094 182.140625 248.851562 182.261719 248.699219 C 182.382812 248.546875 182.496094 248.386719 182.597656 248.21875 C 182.699219 248.054688 182.789062 247.878906 182.867188 247.703125 C 182.949219 247.523438 183.015625 247.339844 183.070312 247.152344 C 183.125 246.964844 183.171875 246.773438 183.203125 246.582031 C 183.234375 246.386719 183.253906 246.195312 183.257812 246 C 183.265625 245.804688 183.257812 245.609375 183.242188 245.414062 C 183.222656 245.21875 183.191406 245.027344 183.148438 244.835938 C 183.105469 244.644531 183.050781 244.457031 182.984375 244.273438 C 182.917969 244.089844 182.835938 243.910156 182.746094 243.738281 C 176.335938 231.167969 170.644531 218.28125 165.675781 205.074219 C 165.570312 204.792969 165.4375 204.523438 165.277344 204.269531 C 165.121094 204.011719 164.9375 203.777344 164.734375 203.554688 C 164.527344 203.335938 164.304688 203.140625 164.058594 202.964844 C 163.816406 202.789062 163.558594 202.640625 163.285156 202.515625 C 163.011719 202.390625 162.726562 202.292969 162.4375 202.226562 C 162.144531 202.15625 161.847656 202.117188 161.546875 202.109375 C 161.246094 202.097656 160.949219 202.117188 160.652344 202.164062 C 160.355469 202.214844 160.066406 202.292969 159.785156 202.398438 C 159.503906 202.503906 159.238281 202.632812 158.980469 202.792969 C 158.726562 202.953125 158.488281 203.132812 158.269531 203.339844 C 158.050781 203.542969 157.851562 203.769531 157.679688 204.011719 C 157.503906 204.257812 157.351562 204.515625 157.230469 204.789062 C 157.105469 205.0625 157.007812 205.34375 156.941406 205.636719 C 156.871094 205.929688 156.832031 206.226562 156.824219 206.527344 C 156.8125 206.828125 156.832031 207.125 156.878906 207.421875 C 156.929688 207.71875 157.003906 208.007812 157.109375 208.289062 C 162.207031 221.835938 168.046875 235.058594 174.625 247.949219 C 175.019531 248.710938 175.582031 249.3125 176.3125 249.757812 C 177.042969 250.199219 177.835938 250.421875 178.691406 250.421875 Z M 178.691406 250.421875 " fill-opacity="1" fill-rule="nonzero"/><path fill="#284268" d="M 109.136719 274.386719 C 109.523438 274.386719 109.902344 274.339844 110.277344 274.242188 C 110.652344 274.144531 111.011719 274.003906 111.351562 273.816406 C 111.6875 273.628906 112 273.402344 112.28125 273.132812 C 112.5625 272.867188 112.804688 272.570312 113.011719 272.242188 C 113.214844 271.914062 113.378906 271.566406 113.496094 271.195312 C 113.613281 270.824219 113.679688 270.449219 113.703125 270.0625 C 113.722656 269.675781 113.695312 269.289062 113.621094 268.910156 C 113.542969 268.53125 113.421875 268.167969 113.25 267.816406 C 105.460938 251.667969 98.710938 235.09375 93.003906 218.09375 C 92.910156 217.808594 92.789062 217.53125 92.640625 217.269531 C 92.492188 217.007812 92.320312 216.761719 92.125 216.535156 C 91.929688 216.304688 91.710938 216.097656 91.476562 215.914062 C 91.238281 215.726562 90.984375 215.566406 90.714844 215.429688 C 90.445312 215.296875 90.167969 215.1875 89.878906 215.109375 C 89.585938 215.027344 89.292969 214.976562 88.992188 214.953125 C 88.691406 214.933594 88.390625 214.941406 88.09375 214.976562 C 87.792969 215.015625 87.503906 215.082031 87.214844 215.175781 C 86.929688 215.269531 86.65625 215.390625 86.394531 215.542969 C 86.132812 215.691406 85.890625 215.863281 85.660156 216.0625 C 85.433594 216.257812 85.226562 216.476562 85.042969 216.714844 C 84.859375 216.953125 84.699219 217.207031 84.566406 217.476562 C 84.429688 217.746094 84.324219 218.027344 84.246094 218.316406 C 84.167969 218.605469 84.117188 218.902344 84.09375 219.203125 C 84.074219 219.503906 84.082031 219.804688 84.121094 220.101562 C 84.160156 220.402344 84.226562 220.691406 84.324219 220.980469 C 90.15625 238.355469 97.054688 255.296875 105.019531 271.804688 C 105.207031 272.191406 105.441406 272.546875 105.730469 272.867188 C 106.015625 273.1875 106.339844 273.460938 106.707031 273.6875 C 107.070312 273.917969 107.457031 274.089844 107.871094 274.210938 C 108.285156 274.328125 108.707031 274.386719 109.136719 274.386719 Z M 109.136719 274.386719 " fill-opacity="1" fill-rule="nonzero"/><path fill="#284268" d="M 109.011719 147.640625 C 111.34375 147.234375 113.695312 147.058594 116.058594 147.105469 C 132.046875 147.105469 146.480469 159.308594 148.261719 175.488281 C 148.519531 177.679688 148.894531 179.851562 149.378906 182.003906 C 149.441406 182.296875 149.535156 182.582031 149.65625 182.855469 C 149.777344 183.132812 149.921875 183.394531 150.09375 183.640625 C 150.265625 183.886719 150.460938 184.113281 150.675781 184.324219 C 150.890625 184.53125 151.128906 184.71875 151.378906 184.878906 C 151.632812 185.042969 151.898438 185.179688 152.179688 185.289062 C 152.460938 185.398438 152.746094 185.476562 153.042969 185.53125 C 153.339844 185.582031 153.636719 185.605469 153.9375 185.601562 C 154.238281 185.59375 154.535156 185.558594 154.828125 185.496094 C 155.121094 185.429688 155.40625 185.339844 155.683594 185.21875 C 155.957031 185.097656 156.21875 184.949219 156.464844 184.777344 C 156.710938 184.605469 156.9375 184.410156 157.148438 184.195312 C 157.355469 183.976562 157.539062 183.742188 157.703125 183.488281 C 157.863281 183.234375 158 182.96875 158.109375 182.6875 C 158.21875 182.40625 158.296875 182.117188 158.351562 181.824219 C 158.402344 181.527344 158.425781 181.226562 158.417969 180.925781 C 158.414062 180.625 158.375 180.328125 158.3125 180.035156 C 157.894531 178.203125 157.578125 176.351562 157.355469 174.484375 C 155.0625 153.65625 136.714844 137.949219 116.058594 137.949219 C 112.996094 137.894531 109.957031 138.15625 106.941406 138.726562 C 86.269531 143.53125 72.863281 162.089844 75.0625 182.859375 C 75.398438 186.019531 75.953125 189.53125 76.710938 193.292969 C 76.816406 193.808594 77.003906 194.296875 77.277344 194.746094 C 77.546875 195.199219 77.890625 195.59375 78.296875 195.929688 C 78.703125 196.261719 79.15625 196.519531 79.652344 196.699219 C 80.152344 196.875 80.664062 196.964844 81.191406 196.964844 C 81.496094 196.964844 81.800781 196.933594 82.097656 196.875 C 82.394531 196.816406 82.679688 196.726562 82.957031 196.613281 C 83.234375 196.496094 83.496094 196.355469 83.746094 196.1875 C 83.996094 196.019531 84.226562 195.828125 84.4375 195.617188 C 84.652344 195.402344 84.839844 195.171875 85.007812 194.921875 C 85.171875 194.671875 85.3125 194.40625 85.425781 194.128906 C 85.542969 193.851562 85.628906 193.566406 85.6875 193.269531 C 85.742188 192.976562 85.773438 192.675781 85.773438 192.375 C 85.769531 192.074219 85.742188 191.777344 85.679688 191.484375 C 84.980469 187.996094 84.46875 184.773438 84.160156 181.890625 C 82.453125 165.789062 92.90625 151.382812 109.011719 147.640625 Z M 109.011719 147.640625 " fill-opacity="1" fill-rule="nonzero"/><path fill="#284268" d="M 127.527344 275.921875 C 127.722656 275.921875 127.917969 275.910156 128.109375 275.882812 C 128.304688 275.859375 128.496094 275.820312 128.683594 275.773438 C 128.871094 275.722656 129.054688 275.660156 129.238281 275.585938 C 129.417969 275.515625 129.59375 275.429688 129.765625 275.335938 C 129.933594 275.238281 130.097656 275.132812 130.253906 275.015625 C 130.410156 274.898438 130.558594 274.773438 130.699219 274.636719 C 130.839844 274.503906 130.972656 274.359375 131.09375 274.207031 C 131.214844 274.054688 131.328125 273.894531 131.429688 273.726562 C 131.53125 273.558594 131.621094 273.386719 131.699219 273.210938 C 131.78125 273.03125 131.847656 272.847656 131.902344 272.660156 C 131.960938 272.472656 132.003906 272.285156 132.035156 272.09375 C 132.066406 271.898438 132.085938 271.707031 132.09375 271.511719 C 132.101562 271.316406 132.09375 271.121094 132.078125 270.925781 C 132.058594 270.730469 132.03125 270.539062 131.988281 270.347656 C 131.945312 270.15625 131.890625 269.96875 131.824219 269.785156 C 131.757812 269.601562 131.679688 269.425781 131.589844 269.25 C 124.816406 256.070312 117.71875 238.644531 112.101562 221.4375 L 107.070312 202.988281 C 104.964844 195.421875 103.421875 187.738281 102.445312 179.941406 C 102.246094 178.09375 102.433594 176.285156 103.003906 174.515625 C 103.574219 172.746094 104.480469 171.171875 105.722656 169.785156 C 108.203125 167.023438 112.5 165.503906 116.203125 165.503906 C 122.796875 165.503906 129.226562 170.660156 129.980469 177.496094 C 131.519531 191.496094 139.507812 212.597656 144.125 223.933594 C 144.238281 224.210938 144.378906 224.476562 144.542969 224.726562 C 144.707031 224.976562 144.894531 225.210938 145.109375 225.421875 C 145.320312 225.636719 145.546875 225.828125 145.796875 225.996094 C 146.046875 226.164062 146.308594 226.304688 146.585938 226.421875 C 146.863281 226.539062 147.148438 226.628906 147.441406 226.6875 C 147.738281 226.746094 148.035156 226.777344 148.335938 226.78125 C 148.632812 226.78125 148.933594 226.753906 149.226562 226.695312 C 149.523438 226.640625 149.808594 226.554688 150.085938 226.441406 C 150.363281 226.328125 150.628906 226.1875 150.878906 226.023438 C 151.128906 225.855469 151.363281 225.667969 151.574219 225.457031 C 151.789062 225.246094 151.980469 225.015625 152.148438 224.765625 C 152.316406 224.519531 152.457031 224.253906 152.574219 223.976562 C 152.691406 223.699219 152.777344 223.414062 152.839844 223.121094 C 152.898438 222.828125 152.929688 222.527344 152.933594 222.226562 C 152.933594 221.929688 152.90625 221.628906 152.847656 221.335938 C 152.792969 221.039062 152.707031 220.753906 152.59375 220.476562 C 145.035156 201.941406 140.109375 185.910156 139.070312 176.496094 C 137.808594 165.011719 127.46875 156.351562 116.203125 156.351562 C 109.964844 156.351562 103.09375 159.023438 98.921875 163.664062 C 97.878906 164.828125 96.96875 166.085938 96.191406 167.4375 C 95.414062 168.792969 94.785156 170.210938 94.304688 171.695312 C 93.824219 173.179688 93.503906 174.699219 93.34375 176.253906 C 93.179688 177.804688 93.183594 179.359375 93.347656 180.910156 C 94.367188 189.183594 96 197.335938 98.238281 205.367188 L 103.304688 223.957031 C 103.324219 224.027344 103.34375 224.097656 103.367188 224.171875 C 109.128906 241.855469 116.453125 259.8125 123.453125 273.4375 C 123.84375 274.203125 124.40625 274.808594 125.140625 275.253906 C 125.871094 275.699219 126.667969 275.921875 127.527344 275.921875 Z M 127.527344 275.921875 " fill-opacity="1" fill-rule="nonzero"/><path fill="#284268" d="M 163.9375 261.871094 C 164.136719 261.871094 164.332031 261.859375 164.527344 261.835938 C 164.722656 261.808594 164.914062 261.769531 165.105469 261.71875 C 165.292969 261.667969 165.480469 261.605469 165.664062 261.53125 C 165.84375 261.457031 166.023438 261.371094 166.191406 261.273438 C 166.363281 261.179688 166.527344 261.070312 166.6875 260.953125 C 166.84375 260.832031 166.992188 260.703125 167.132812 260.566406 C 167.273438 260.429688 167.40625 260.28125 167.527344 260.128906 C 167.648438 259.972656 167.757812 259.8125 167.859375 259.640625 C 167.960938 259.472656 168.050781 259.296875 168.128906 259.117188 C 168.207031 258.9375 168.273438 258.753906 168.328125 258.5625 C 168.382812 258.375 168.425781 258.179688 168.453125 257.988281 C 168.484375 257.792969 168.5 257.597656 168.507812 257.398438 C 168.511719 257.203125 168.503906 257.007812 168.480469 256.808594 C 168.460938 256.613281 168.425781 256.421875 168.382812 256.230469 C 168.335938 256.039062 168.277344 255.851562 168.207031 255.664062 C 168.136719 255.480469 168.054688 255.304688 167.960938 255.128906 C 165.242188 250.066406 162.25 243.984375 159.304688 237.539062 C 159.183594 237.265625 159.035156 237.003906 158.859375 236.757812 C 158.683594 236.511719 158.484375 236.285156 158.265625 236.082031 C 158.046875 235.875 157.808594 235.691406 157.550781 235.53125 C 157.296875 235.371094 157.027344 235.238281 156.746094 235.132812 C 156.464844 235.027344 156.171875 234.949219 155.875 234.898438 C 155.578125 234.851562 155.277344 234.832031 154.976562 234.839844 C 154.675781 234.851562 154.378906 234.890625 154.085938 234.960938 C 153.792969 235.03125 153.507812 235.128906 153.234375 235.253906 C 152.957031 235.378906 152.699219 235.53125 152.453125 235.707031 C 152.210938 235.882812 151.984375 236.082031 151.78125 236.304688 C 151.574219 236.527344 151.394531 236.765625 151.238281 237.023438 C 151.078125 237.277344 150.949219 237.550781 150.84375 237.832031 C 150.738281 238.117188 150.664062 238.40625 150.617188 238.703125 C 150.570312 239.003906 150.554688 239.300781 150.566406 239.605469 C 150.578125 239.90625 150.621094 240.203125 150.691406 240.496094 C 150.761719 240.789062 150.859375 241.074219 150.988281 241.347656 C 154.011719 247.964844 157.097656 254.230469 159.90625 259.460938 C 160.304688 260.203125 160.867188 260.792969 161.589844 261.222656 C 162.3125 261.65625 163.09375 261.875 163.9375 261.871094 Z M 163.9375 261.871094 " fill-opacity="1" fill-rule="nonzero"/><path fill="#284268" d="M 147.433594 270.019531 C 147.632812 270.019531 147.828125 270.003906 148.023438 269.980469 C 148.21875 269.953125 148.410156 269.917969 148.601562 269.867188 C 148.789062 269.816406 148.976562 269.753906 149.160156 269.679688 C 149.339844 269.605469 149.515625 269.519531 149.6875 269.421875 C 149.859375 269.324219 150.023438 269.21875 150.179688 269.097656 C 150.335938 268.980469 150.484375 268.851562 150.625 268.714844 C 150.765625 268.578125 150.898438 268.433594 151.019531 268.277344 C 151.140625 268.125 151.253906 267.960938 151.355469 267.792969 C 151.457031 267.625 151.546875 267.449219 151.625 267.269531 C 151.703125 267.089844 151.769531 266.902344 151.824219 266.714844 C 151.878906 266.527344 151.921875 266.335938 151.953125 266.140625 C 151.980469 265.945312 152 265.75 152.003906 265.554688 C 152.007812 265.355469 152 265.160156 151.980469 264.964844 C 151.960938 264.769531 151.925781 264.574219 151.882812 264.382812 C 151.835938 264.191406 151.777344 264.003906 151.707031 263.820312 C 151.640625 263.636719 151.558594 263.457031 151.464844 263.285156 C 143.953125 248.910156 137.371094 234.125 131.707031 218.929688 C 131.605469 218.644531 131.476562 218.371094 131.320312 218.113281 C 131.164062 217.855469 130.984375 217.613281 130.78125 217.390625 C 130.574219 217.164062 130.351562 216.964844 130.105469 216.785156 C 129.863281 216.605469 129.605469 216.453125 129.328125 216.328125 C 129.054688 216.199219 128.769531 216.101562 128.476562 216.03125 C 128.183594 215.957031 127.882812 215.917969 127.582031 215.90625 C 127.28125 215.894531 126.980469 215.914062 126.679688 215.960938 C 126.382812 216.007812 126.089844 216.085938 125.808594 216.191406 C 125.523438 216.296875 125.253906 216.429688 124.996094 216.589844 C 124.738281 216.75 124.5 216.933594 124.28125 217.140625 C 124.058594 217.347656 123.859375 217.574219 123.683594 217.820312 C 123.507812 218.066406 123.359375 218.328125 123.234375 218.601562 C 123.109375 218.878906 123.015625 219.164062 122.949219 219.460938 C 122.878906 219.753906 122.84375 220.054688 122.835938 220.355469 C 122.828125 220.660156 122.847656 220.957031 122.898438 221.257812 C 122.949219 221.554688 123.03125 221.847656 123.140625 222.128906 C 128.945312 237.707031 135.695312 252.863281 143.398438 267.597656 C 143.796875 268.34375 144.355469 268.933594 145.082031 269.367188 C 145.804688 269.800781 146.589844 270.019531 147.433594 270.019531 Z M 147.433594 270.019531 " fill-opacity="1" fill-rule="nonzero"/><path fill="#284268" d="M 115.648438 174.738281 C 115.351562 174.765625 115.058594 174.828125 114.769531 174.914062 C 114.484375 175.003906 114.207031 175.117188 113.941406 175.261719 C 113.679688 175.402344 113.429688 175.570312 113.199219 175.761719 C 112.96875 175.953125 112.757812 176.164062 112.566406 176.398438 C 112.378906 176.632812 112.210938 176.878906 112.070312 177.144531 C 111.929688 177.410156 111.816406 177.6875 111.730469 177.976562 C 111.644531 178.265625 111.589844 178.558594 111.558594 178.855469 C 111.53125 179.15625 111.53125 179.453125 111.5625 179.753906 C 112.285156 186.820312 114.402344 195.941406 117.859375 206.867188 C 117.949219 207.152344 118.066406 207.429688 118.210938 207.691406 C 118.355469 207.957031 118.523438 208.203125 118.71875 208.433594 C 118.910156 208.664062 119.125 208.871094 119.359375 209.0625 C 119.59375 209.25 119.84375 209.414062 120.113281 209.550781 C 120.378906 209.691406 120.65625 209.800781 120.945312 209.886719 C 121.234375 209.96875 121.527344 210.023438 121.828125 210.050781 C 122.125 210.074219 122.425781 210.070312 122.722656 210.039062 C 123.023438 210.003906 123.316406 209.945312 123.601562 209.851562 C 123.886719 209.761719 124.164062 209.644531 124.425781 209.5 C 124.6875 209.355469 124.933594 209.183594 125.164062 208.992188 C 125.394531 208.796875 125.605469 208.582031 125.792969 208.347656 C 125.980469 208.113281 126.140625 207.863281 126.28125 207.597656 C 126.417969 207.328125 126.53125 207.050781 126.613281 206.761719 C 126.695312 206.472656 126.75 206.179688 126.777344 205.878906 C 126.800781 205.578125 126.796875 205.28125 126.765625 204.980469 C 126.730469 204.683594 126.667969 204.390625 126.578125 204.105469 C 123.308594 193.773438 121.320312 185.269531 120.664062 178.824219 C 120.632812 178.527344 120.574219 178.234375 120.484375 177.945312 C 120.394531 177.660156 120.28125 177.382812 120.136719 177.117188 C 119.996094 176.855469 119.828125 176.605469 119.636719 176.375 C 119.445312 176.140625 119.234375 175.933594 119 175.742188 C 118.769531 175.550781 118.519531 175.386719 118.253906 175.246094 C 117.988281 175.105469 117.710938 174.992188 117.425781 174.90625 C 117.136719 174.820312 116.84375 174.761719 116.546875 174.734375 C 116.246094 174.707031 115.949219 174.707031 115.648438 174.738281 Z M 115.648438 174.738281 " fill-opacity="1" fill-rule="nonzero"/><path fill="#284268" d="M 207.070312 189.183594 C 207.652344 189.179688 208.214844 189.074219 208.757812 188.855469 C 209.300781 188.640625 209.78125 188.332031 210.207031 187.929688 C 210.632812 187.527344 210.964844 187.0625 211.210938 186.535156 C 211.457031 186.003906 211.597656 185.445312 211.628906 184.863281 C 211.734375 183.035156 211.78125 181.175781 211.78125 179.332031 C 211.792969 174.40625 211.425781 169.507812 210.683594 164.636719 C 209.941406 159.765625 208.828125 154.984375 207.347656 150.285156 C 205.871094 145.585938 204.039062 141.027344 201.859375 136.613281 C 199.679688 132.195312 197.175781 127.972656 194.34375 123.941406 C 194.171875 123.695312 193.976562 123.472656 193.757812 123.265625 C 193.539062 123.058594 193.304688 122.878906 193.050781 122.71875 C 192.800781 122.558594 192.535156 122.425781 192.253906 122.316406 C 191.976562 122.210938 191.6875 122.132812 191.394531 122.082031 C 191.097656 122.03125 190.800781 122.007812 190.503906 122.015625 C 190.203125 122.023438 189.90625 122.058594 189.617188 122.125 C 189.324219 122.191406 189.042969 122.28125 188.765625 122.402344 C 188.492188 122.523438 188.234375 122.671875 187.988281 122.84375 C 187.746094 123.015625 187.519531 123.207031 187.3125 123.425781 C 187.105469 123.640625 186.921875 123.875 186.761719 124.128906 C 186.597656 124.378906 186.464844 124.644531 186.355469 124.925781 C 186.246094 125.203125 186.164062 125.488281 186.113281 125.785156 C 186.058594 126.078125 186.035156 126.375 186.042969 126.675781 C 186.046875 126.976562 186.082031 127.269531 186.144531 127.5625 C 186.210938 127.855469 186.300781 128.140625 186.421875 128.414062 C 186.539062 128.6875 186.683594 128.949219 186.855469 129.195312 C 189.417969 132.84375 191.683594 136.667969 193.65625 140.664062 C 195.628906 144.660156 197.285156 148.785156 198.625 153.039062 C 199.964844 157.292969 200.96875 161.625 201.640625 166.03125 C 202.316406 170.4375 202.644531 174.871094 202.636719 179.332031 C 202.636719 181.003906 202.589844 182.691406 202.496094 184.347656 C 202.476562 184.648438 202.488281 184.945312 202.53125 185.242188 C 202.574219 185.539062 202.644531 185.832031 202.742188 186.113281 C 202.84375 186.398438 202.96875 186.671875 203.121094 186.929688 C 203.273438 187.1875 203.449219 187.429688 203.648438 187.652344 C 203.847656 187.878906 204.070312 188.078125 204.308594 188.261719 C 204.550781 188.441406 204.804688 188.597656 205.074219 188.726562 C 205.34375 188.859375 205.625 188.960938 205.917969 189.035156 C 206.207031 189.109375 206.503906 189.15625 206.800781 189.175781 C 206.894531 189.179688 206.980469 189.183594 207.070312 189.183594 Z M 207.070312 189.183594 " fill-opacity="1" fill-rule="nonzero"/><path fill="#284268" d="M 115.261719 91.894531 C 120.535156 91.890625 125.761719 92.363281 130.945312 93.308594 C 136.132812 94.253906 141.191406 95.65625 146.121094 97.519531 C 151.050781 99.382812 155.777344 101.671875 160.292969 104.390625 C 164.808594 107.109375 169.042969 110.210938 173 113.699219 C 173.226562 113.890625 173.46875 114.058594 173.726562 114.203125 C 173.984375 114.34375 174.253906 114.464844 174.535156 114.554688 C 174.820312 114.644531 175.105469 114.710938 175.402344 114.746094 C 175.695312 114.78125 175.988281 114.789062 176.285156 114.765625 C 176.578125 114.742188 176.871094 114.695312 177.15625 114.613281 C 177.441406 114.535156 177.714844 114.433594 177.980469 114.300781 C 178.246094 114.167969 178.496094 114.011719 178.730469 113.832031 C 178.96875 113.652344 179.183594 113.449219 179.378906 113.226562 C 179.574219 113.003906 179.746094 112.765625 179.894531 112.511719 C 180.046875 112.253906 180.167969 111.988281 180.265625 111.707031 C 180.363281 111.425781 180.433594 111.140625 180.476562 110.847656 C 180.515625 110.554688 180.53125 110.257812 180.515625 109.964844 C 180.5 109.667969 180.457031 109.375 180.382812 109.089844 C 180.3125 108.800781 180.210938 108.523438 180.085938 108.253906 C 179.960938 107.988281 179.808594 107.734375 179.632812 107.496094 C 179.460938 107.253906 179.261719 107.035156 179.046875 106.835938 C 177.5 105.472656 175.910156 104.160156 174.28125 102.902344 C 172.652344 101.640625 170.984375 100.433594 169.277344 99.28125 C 167.570312 98.128906 165.828125 97.03125 164.050781 95.988281 C 162.273438 94.949219 160.464844 93.964844 158.625 93.039062 C 156.785156 92.113281 154.914062 91.246094 153.019531 90.441406 C 151.125 89.632812 149.207031 88.890625 147.261719 88.207031 C 145.320312 87.523438 143.355469 86.902344 141.375 86.34375 C 139.390625 85.789062 137.390625 85.292969 135.378906 84.863281 C 133.363281 84.433594 131.335938 84.070312 129.300781 83.769531 C 127.261719 83.472656 125.214844 83.238281 123.164062 83.066406 C 121.109375 82.898438 119.054688 82.796875 116.996094 82.757812 C 114.9375 82.722656 112.878906 82.75 110.820312 82.84375 C 108.761719 82.941406 106.710938 83.101562 104.664062 83.328125 C 102.617188 83.550781 100.578125 83.84375 98.550781 84.199219 C 96.519531 84.558594 94.507812 84.976562 92.503906 85.464844 C 90.503906 85.949219 88.519531 86.5 86.550781 87.113281 C 84.585938 87.722656 82.640625 88.398438 80.71875 89.136719 C 78.792969 89.875 76.898438 90.671875 75.023438 91.53125 C 73.152344 92.390625 71.308594 93.308594 69.496094 94.285156 C 67.683594 95.261719 65.902344 96.296875 64.152344 97.386719 C 62.40625 98.476562 60.695312 99.621094 59.023438 100.824219 C 57.347656 102.023438 55.714844 103.277344 54.121094 104.582031 C 52.527344 105.886719 50.976562 107.242188 49.46875 108.644531 C 47.960938 110.050781 46.5 111.5 45.085938 113 C 43.667969 114.496094 42.304688 116.039062 40.988281 117.625 C 39.671875 119.210938 38.410156 120.835938 37.195312 122.503906 C 35.984375 124.167969 34.828125 125.871094 33.722656 127.613281 C 32.621094 129.355469 31.574219 131.128906 30.585938 132.933594 C 29.59375 134.742188 28.664062 136.582031 27.792969 138.449219 C 26.921875 140.316406 26.109375 142.207031 25.359375 144.125 C 24.605469 146.046875 23.917969 147.988281 23.292969 149.949219 C 22.664062 151.914062 22.101562 153.894531 21.601562 155.894531 C 21.527344 156.1875 21.480469 156.484375 21.464844 156.785156 C 21.449219 157.085938 21.460938 157.386719 21.503906 157.683594 C 21.546875 157.984375 21.617188 158.277344 21.71875 158.558594 C 21.820312 158.84375 21.949219 159.117188 22.101562 159.375 C 22.257812 159.636719 22.433594 159.875 22.636719 160.101562 C 22.839844 160.324219 23.0625 160.527344 23.304688 160.707031 C 23.546875 160.886719 23.804688 161.039062 24.078125 161.167969 C 24.351562 161.296875 24.632812 161.398438 24.925781 161.472656 C 25.21875 161.546875 25.515625 161.589844 25.816406 161.601562 C 26.117188 161.617188 26.417969 161.601562 26.714844 161.554688 C 27.011719 161.511719 27.304688 161.4375 27.589844 161.335938 C 27.871094 161.230469 28.140625 161.101562 28.402344 160.945312 C 28.660156 160.789062 28.898438 160.609375 29.121094 160.40625 C 29.34375 160.199219 29.542969 159.976562 29.722656 159.734375 C 29.898438 159.488281 30.050781 159.230469 30.179688 158.957031 C 30.304688 158.683594 30.40625 158.398438 30.476562 158.105469 C 31.058594 155.761719 31.738281 153.441406 32.511719 151.152344 C 33.289062 148.863281 34.15625 146.609375 35.121094 144.390625 C 36.082031 142.175781 37.136719 140 38.277344 137.871094 C 39.421875 135.742188 40.648438 133.664062 41.964844 131.636719 C 43.28125 129.609375 44.679688 127.640625 46.15625 125.726562 C 47.636719 123.816406 49.191406 121.96875 50.824219 120.1875 C 52.457031 118.40625 54.160156 116.695312 55.9375 115.054688 C 57.710938 113.414062 59.550781 111.851562 61.453125 110.363281 C 63.359375 108.875 65.320312 107.46875 67.34375 106.144531 C 69.363281 104.820312 71.4375 103.585938 73.5625 102.433594 C 75.683594 101.28125 77.851562 100.21875 80.066406 99.246094 C 82.277344 98.277344 84.527344 97.398438 86.8125 96.613281 C 89.097656 95.828125 91.410156 95.140625 93.753906 94.550781 C 96.09375 93.957031 98.457031 93.464844 100.839844 93.070312 C 103.222656 92.671875 105.621094 92.378906 108.027344 92.179688 C 110.433594 91.984375 112.847656 91.890625 115.261719 91.894531 Z M 115.261719 91.894531 " fill-opacity="1" fill-rule="nonzero"/><path fill="#284268" d="M 23.3125 174.753906 C 23.011719 174.753906 22.714844 174.785156 22.421875 174.84375 C 22.125 174.902344 21.839844 174.988281 21.5625 175.101562 C 21.285156 175.21875 21.019531 175.359375 20.773438 175.527344 C 20.523438 175.691406 20.292969 175.882812 20.078125 176.09375 C 19.867188 176.308594 19.675781 176.539062 19.511719 176.789062 C 19.34375 177.039062 19.203125 177.300781 19.085938 177.578125 C 18.972656 177.859375 18.886719 178.144531 18.828125 178.4375 C 18.769531 178.734375 18.738281 179.03125 18.738281 179.332031 C 18.726562 186.015625 19.402344 192.632812 20.769531 199.175781 C 22.140625 205.71875 24.167969 212.050781 26.859375 218.171875 C 26.980469 218.445312 27.128906 218.707031 27.300781 218.953125 C 27.472656 219.199219 27.667969 219.425781 27.882812 219.632812 C 28.101562 219.839844 28.335938 220.027344 28.589844 220.1875 C 28.84375 220.347656 29.109375 220.484375 29.386719 220.59375 C 29.667969 220.703125 29.957031 220.78125 30.25 220.835938 C 30.546875 220.886719 30.84375 220.910156 31.144531 220.902344 C 31.445312 220.898438 31.742188 220.863281 32.035156 220.796875 C 32.328125 220.730469 32.613281 220.640625 32.886719 220.519531 C 33.164062 220.398438 33.421875 220.25 33.667969 220.078125 C 33.914062 219.90625 34.140625 219.710938 34.351562 219.496094 C 34.558594 219.277344 34.742188 219.042969 34.902344 218.789062 C 35.066406 218.535156 35.199219 218.269531 35.308594 217.988281 C 35.417969 217.707031 35.5 217.421875 35.550781 217.125 C 35.601562 216.828125 35.625 216.53125 35.621094 216.230469 C 35.613281 215.929688 35.578125 215.632812 35.511719 215.339844 C 35.449219 215.046875 35.355469 214.761719 35.234375 214.488281 C 32.796875 208.949219 30.960938 203.214844 29.722656 197.292969 C 28.484375 191.371094 27.871094 185.382812 27.886719 179.332031 C 27.886719 179.03125 27.855469 178.734375 27.796875 178.4375 C 27.738281 178.144531 27.652344 177.859375 27.539062 177.578125 C 27.421875 177.300781 27.28125 177.039062 27.113281 176.789062 C 26.949219 176.539062 26.757812 176.308594 26.546875 176.09375 C 26.332031 175.882812 26.101562 175.691406 25.851562 175.527344 C 25.605469 175.359375 25.339844 175.21875 25.0625 175.101562 C 24.785156 174.988281 24.5 174.902344 24.203125 174.84375 C 23.910156 174.785156 23.613281 174.753906 23.3125 174.753906 Z M 23.3125 174.753906 " fill-opacity="1" fill-rule="nonzero"/></svg>