<svg xmlns="http://www.w3.org/2000/svg" xmlns:xlink="http://www.w3.org/1999/xlink" width="1000" zoomAndPan="magnify" viewBox="0 0 750 749.999995" height="1000" preserveAspectRatio="xMidYMid meet" version="1.0"><path fill="#007aa5" d="M 730.496094 194.109375 L 520.0625 181.578125 C 507.527344 180.683594 500.363281 195.003906 508.421875 204.851562 L 561.253906 270.199219 C 566.628906 276.464844 564.835938 285.414062 559.464844 289.890625 L 404.550781 413.421875 C 398.28125 417.898438 390.222656 417.898438 384.851562 411.632812 L 319.480469 336.441406 L 299.78125 314.0625 C 294.410156 307.792969 285.453125 307.792969 280.082031 312.269531 L 259.484375 329.277344 L 11.445312 542.328125 C 6.070312 546.804688 5.175781 554.859375 8.757812 561.125 C 13.234375 567.390625 21.292969 569.183594 27.5625 565.601562 L 265.753906 429.535156 C 272.023438 425.957031 279.1875 427.746094 283.664062 432.222656 L 355.300781 513.683594 L 375 536.0625 C 380.371094 541.433594 388.433594 542.328125 394.699219 537.851562 L 417.980469 519.054688 L 615.878906 358.820312 C 622.144531 353.449219 631.101562 355.238281 635.578125 360.609375 L 688.410156 425.957031 C 696.46875 435.804688 711.691406 431.328125 713.484375 418.792969 L 744.824219 210.222656 C 744.824219 202.164062 738.554688 194.109375 730.496094 194.109375 Z M 730.496094 194.109375 " fill-opacity="1" fill-rule="nonzero"/></svg>