<svg xmlns="http://www.w3.org/2000/svg" xmlns:xlink="http://www.w3.org/1999/xlink" width="500" zoomAndPan="magnify" viewBox="0 0 375 374.999991" height="500" preserveAspectRatio="xMidYMid meet" version="1.0"><defs><g/></defs><path fill="#63a335" d="M 341.667969 178.667969 C 342.460938 180.230469 341.835938 182.128906 340.277344 182.917969 L 67.800781 320.632812 C 66.242188 321.414062 64.34375 320.792969 63.558594 319.234375 L 1.527344 196.421875 C 0.742188 194.867188 1.367188 192.964844 2.925781 192.183594 L 275.394531 54.464844 C 276.960938 53.679688 278.851562 54.296875 279.644531 55.855469 L 341.667969 178.667969 " fill-opacity="1" fill-rule="nonzero"/><path fill="#80cb4a" d="M 322.015625 175.066406 C 322.667969 176.351562 322.050781 177.96875 320.660156 178.671875 L 76.023438 302.316406 C 74.625 303.023438 72.96875 302.554688 72.324219 301.273438 L 21.1875 200.027344 C 20.53125 198.742188 21.144531 197.128906 22.542969 196.421875 L 267.171875 72.773438 C 268.570312 72.070312 270.226562 72.542969 270.878906 73.824219 L 322.015625 175.066406 " fill-opacity="1" fill-rule="nonzero"/><path fill="#63a335" d="M 206.988281 169.65625 C 216.867188 189.207031 209.023438 213.070312 189.480469 222.949219 C 169.9375 232.828125 146.082031 224.984375 136.210938 205.433594 C 126.332031 185.882812 134.179688 162.023438 153.722656 152.144531 C 173.265625 142.261719 197.113281 150.105469 206.988281 169.65625 " fill-opacity="1" fill-rule="nonzero"/><path fill="#63a335" d="M 21.1875 200.027344 L 35.039062 227.464844 C 51.472656 219.160156 58.066406 199.101562 49.757812 182.660156 L 22.542969 196.421875 C 21.144531 197.128906 20.53125 198.742188 21.1875 200.027344 " fill-opacity="1" fill-rule="nonzero"/><path fill="#70b747" d="M 75.820312 302.425781 L 103.246094 288.558594 C 94.941406 272.117188 74.890625 265.527344 58.460938 273.828125 L 72.214844 301.0625 C 72.921875 302.460938 74.53125 303.070312 75.820312 302.425781 " fill-opacity="1" fill-rule="nonzero"/><path fill="#63a335" d="M 270.878906 73.824219 L 284.742188 101.261719 C 268.308594 109.566406 248.253906 102.976562 239.949219 86.535156 L 267.171875 72.773438 C 268.570312 72.070312 270.226562 72.542969 270.878906 73.824219 " fill-opacity="1" fill-rule="nonzero"/><path fill="#63a335" d="M 320.863281 178.570312 L 293.4375 192.433594 C 285.136719 175.992188 291.722656 155.933594 308.160156 147.628906 L 321.914062 174.863281 C 322.617188 176.261719 322.152344 177.921875 320.863281 178.570312 " fill-opacity="1" fill-rule="nonzero"/><path fill="#70b747" d="M 374.269531 317.816406 C 374.269531 319.558594 372.855469 320.972656 371.113281 320.972656 L 65.832031 320.972656 C 64.085938 320.972656 62.671875 319.558594 62.671875 317.816406 L 62.671875 180.210938 C 62.671875 178.46875 64.085938 177.054688 65.832031 177.054688 L 371.113281 177.054688 C 372.855469 177.054688 374.269531 178.46875 374.269531 180.210938 L 374.269531 317.816406 " fill-opacity="1" fill-rule="nonzero"/><path fill="#8dd361" d="M 358.347656 305.730469 C 358.347656 307.171875 357.074219 308.335938 355.519531 308.335938 L 81.429688 308.335938 C 79.859375 308.335938 78.589844 307.171875 78.589844 305.730469 L 78.589844 192.296875 C 78.589844 190.855469 79.859375 189.691406 81.429688 189.691406 L 355.519531 189.691406 C 357.074219 189.691406 358.347656 190.855469 358.347656 192.296875 L 358.347656 305.730469 " fill-opacity="1" fill-rule="nonzero"/><path fill="#70b747" d="M 258.125 249.015625 C 258.125 270.917969 240.371094 288.675781 218.472656 288.675781 C 196.574219 288.675781 178.820312 270.917969 178.820312 249.015625 C 178.820312 227.105469 196.574219 209.34375 218.472656 209.34375 C 240.371094 209.34375 258.125 227.105469 258.125 249.015625 " fill-opacity="1" fill-rule="nonzero"/><path fill="#70b747" d="M 78.589844 192.296875 L 78.589844 223.039062 C 97.003906 223.039062 111.925781 208.109375 111.925781 189.691406 L 81.429688 189.691406 C 79.859375 189.691406 78.589844 190.855469 78.589844 192.296875 " fill-opacity="1" fill-rule="nonzero"/><path fill="#70b747" d="M 81.191406 308.335938 L 111.925781 308.335938 C 111.925781 289.917969 97.003906 274.988281 78.589844 274.988281 L 78.589844 305.5 C 78.589844 307.0625 79.757812 308.335938 81.191406 308.335938 " fill-opacity="1" fill-rule="nonzero"/><path fill="#70b747" d="M 358.347656 192.296875 L 358.347656 223.039062 C 339.9375 223.039062 325.015625 208.109375 325.015625 189.691406 L 355.519531 189.691406 C 357.074219 189.691406 358.347656 190.855469 358.347656 192.296875 " fill-opacity="1" fill-rule="nonzero"/><path fill="#70b747" d="M 355.746094 308.335938 L 325.015625 308.335938 C 325.015625 289.917969 339.9375 274.988281 358.347656 274.988281 L 358.347656 305.5 C 358.347656 307.0625 357.183594 308.335938 355.746094 308.335938 " fill-opacity="1" fill-rule="nonzero"/><g fill="#ffffff" fill-opacity="1"><g transform="translate(198.614552, 280.535296)"><g><path d="M 9.546875 -57.234375 C 12.453125 -57.234375 14.671875 -56.421875 16.203125 -54.796875 C 17.117188 -53.828125 17.816406 -52.515625 18.296875 -50.859375 C 18.785156 -49.203125 19.03125 -46.867188 19.03125 -43.859375 L 19.03125 -38.0625 L 45.46875 -38.0625 L 45.46875 -32.5625 L 19.03125 -32.5625 L 19.03125 -11.46875 C 19.03125 -9.070312 19.347656 -7.4375 19.984375 -6.5625 C 20.617188 -5.695312 21.878906 -5.265625 23.765625 -5.265625 C 25.859375 -5.265625 27.894531 -5.835938 29.875 -6.984375 C 31.863281 -8.140625 33.507812 -9.632812 34.8125 -11.46875 C 36.113281 -13.300781 36.765625 -15.234375 36.765625 -17.265625 C 36.765625 -19.816406 35.3125 -21.09375 32.40625 -21.09375 C 30.976562 -21.09375 29.703125 -20.941406 28.578125 -20.640625 L 27.8125 -25.828125 C 28.675781 -26.035156 29.601562 -26.210938 30.59375 -26.359375 C 31.59375 -26.515625 32.601562 -26.59375 33.625 -26.59375 C 36.269531 -26.59375 38.457031 -25.90625 40.1875 -24.53125 C 41.925781 -23.15625 42.796875 -20.988281 42.796875 -18.03125 C 42.796875 -15.6875 42.25 -13.429688 41.15625 -11.265625 C 40.0625 -9.109375 38.59375 -7.175781 36.75 -5.46875 C 34.914062 -3.757812 32.851562 -2.421875 30.5625 -1.453125 C 28.269531 -0.484375 25.925781 0 23.53125 0 C 21.644531 0 20.09375 -0.210938 18.875 -0.640625 C 17.65625 -1.078125 16.632812 -1.679688 15.8125 -2.453125 C 15.050781 -3.160156 14.414062 -4.097656 13.90625 -5.265625 C 13.394531 -6.441406 13.140625 -8.40625 13.140625 -11.15625 L 13.140625 -32.5625 L 5.734375 -32.5625 L 5.734375 -38.0625 L 13.140625 -38.0625 L 13.140625 -43.5625 C 13.140625 -46.207031 12.832031 -48.226562 12.21875 -49.625 C 11.613281 -51.03125 10.164062 -51.734375 7.875 -51.734375 C 6.90625 -51.734375 5.945312 -51.59375 5 -51.3125 C 4.0625 -51.03125 3.257812 -50.765625 2.59375 -50.515625 L 0.53125 -55.25 C 2.0625 -55.914062 3.550781 -56.410156 5 -56.734375 C 6.457031 -57.066406 7.972656 -57.234375 9.546875 -57.234375 Z M 9.546875 -57.234375 "/></g></g></g></svg>