<svg xmlns="http://www.w3.org/2000/svg" width="512" height="512" viewBox="0 0 512 512" version="1.1"><path d="M 449.322 137.938 C 439.721 140.526, 428.509 145.811, 418.522 152.456 C 406.521 160.442, 406.761 159.660, 413.519 168.749 C 416.688 173.012, 419.613 176.872, 420.018 177.327 C 420.423 177.783, 423.031 176.433, 425.813 174.327 C 434.394 167.833, 441.616 163.894, 450.648 160.781 C 461.621 156.999, 471.301 157.056, 475.422 160.927 C 489.027 173.708, 469.276 214.057, 438.428 236.503 C 425.160 246.157, 407.117 252.374, 397.571 250.581 C 395.080 250.112, 392.374 248.574, 390.177 246.377 L 386.711 242.911 387.283 233.325 L 387.855 223.738 381.450 224.252 C 377.634 224.558, 373.116 225.723, 370.273 227.133 L 365.500 229.500 365.500 238.528 C 365.500 246.721, 365.805 248.174, 368.800 254.252 C 376.613 270.106, 394.381 276.551, 415.155 271.067 C 426.527 268.066, 441.927 260.436, 451.981 252.822 C 456.573 249.345, 461.493 245.625, 462.915 244.556 C 466.542 241.828, 476.730 230.788, 481.550 224.362 C 503.054 195.694, 507.924 164.122, 493.450 147.213 C 491.346 144.755, 487.225 141.759, 483.266 139.810 C 477.281 136.864, 475.610 136.510, 466.558 136.270 C 459.077 136.071, 454.661 136.499, 449.322 137.938 M 88.110 209.396 C 83.139 212.151, 83.073 212.743, 83.035 255.234 L 83 294.968 85.918 298.234 C 88.405 301.018, 89.509 301.500, 93.395 301.500 C 97.043 301.500, 98.509 300.946, 100.727 298.730 L 103.500 295.959 104 274.399 L 104.500 252.839 120.219 275.237 C 128.865 287.556, 136.900 298.504, 138.074 299.567 C 139.516 300.872, 141.665 301.500, 144.687 301.500 C 148.480 301.500, 149.610 301.001, 152.082 298.234 L 155 294.968 155 254.884 L 155 214.800 151.600 211.400 C 147.109 206.909, 142.436 206.746, 137.766 210.916 L 134.500 213.832 134 235.469 L 133.500 257.107 117.556 234.473 C 108.786 222.024, 100.513 210.975, 99.171 209.920 C 96.359 207.708, 91.565 207.480, 88.110 209.396 M 168.400 211.400 L 165 214.800 165 254.884 L 165 294.968 167.916 298.234 L 170.832 301.500 191.858 301.806 C 209.446 302.061, 213.381 301.854, 215.925 300.539 C 222.379 297.201, 223.584 288.857, 218.365 283.638 C 215.850 281.123, 215.381 281.045, 201.140 280.776 L 186.500 280.500 186.206 273.250 L 185.912 266 196.988 266 C 209.058 266, 213.631 264.793, 216.369 260.883 C 219.010 257.113, 218.465 251.552, 215.085 247.766 L 212.169 244.500 199.085 244.171 L 186 243.841 186 236.421 L 186 229 199.750 228.978 C 211.266 228.959, 213.847 228.675, 215.633 227.228 C 221.114 222.788, 221.510 216.310, 216.600 211.400 L 213.200 208 192.500 208 L 171.800 208 168.400 211.400 M 233.313 209.176 C 229.224 210.265, 226 214.378, 226 218.507 C 226 223.674, 244.732 295.163, 246.826 297.985 C 249.525 301.623, 255.094 302.802, 259.548 300.678 C 263.653 298.721, 263.657 298.714, 274.052 270.272 C 278.192 258.942, 281.752 250.592, 282.143 251.290 C 282.527 251.976, 286.459 262.429, 290.881 274.519 C 299.781 298.847, 301.802 302, 308.500 302 C 310.874 302, 312.935 301.133, 315.032 299.250 C 317.893 296.682, 318.753 293.955, 328.046 258 C 334.190 234.230, 337.788 218.502, 337.450 216.891 C 336.796 213.772, 332.443 209.500, 329.092 208.688 C 326.257 208.001, 321.185 209.943, 318.844 212.612 C 317.933 213.650, 314.816 223.675, 311.917 234.888 C 307.620 251.508, 306.478 254.834, 305.738 252.888 C 305.238 251.575, 301.936 242.625, 298.399 233 C 294.863 223.375, 291.430 214.449, 290.770 213.165 C 289.273 210.250, 285.045 208, 281.065 208 C 275.124 208, 272.657 211.788, 265.112 232.500 C 261.305 242.950, 257.846 252.362, 257.425 253.415 C 256.891 254.750, 255.094 249.247, 251.486 235.227 C 247.217 218.643, 244.214 210, 242.720 210 C 242.592 210, 241.140 209.624, 239.493 209.164 C 237.847 208.704, 235.066 208.710, 233.313 209.176" stroke="none" fill="#f35c5c" fill-rule="evenodd"/><path d="M 102 129.427 C 93.383 131.343, 89.142 132.919, 79.942 137.626 C 63.429 146.074, 50.415 159.575, 42.468 176.500 C 34.339 193.812, 34.500 192.203, 34.500 256 C 34.500 319.499, 34.361 318.067, 42.179 334.998 C 50.255 352.489, 63.912 366.406, 81.500 375.069 C 100.048 384.205, 87.411 383.450, 227 383.763 C 362.659 384.068, 356.941 384.294, 372.632 378.011 C 382.846 373.921, 393.161 367.058, 401.028 359.118 C 408.978 351.095, 460.123 281.157, 463.608 273.545 C 467.029 266.073, 468.281 257.474, 467.056 249.868 C 466.513 246.495, 465.850 243.516, 465.582 243.249 C 465.315 242.982, 464.024 243.604, 462.713 244.632 C 444.436 258.962, 429.947 267.246, 417.727 270.354 C 412.988 271.559, 411.106 272.724, 407.227 276.854 C 391.615 293.472, 365.898 289.758, 355.895 269.439 C 352.109 261.748, 351.631 253.553, 354.473 245.049 C 357.114 237.145, 366.493 227.765, 373.932 225.589 C 381.158 223.475, 385.446 223.585, 393.569 226.094 C 399.169 227.824, 401.334 229.174, 406.019 233.859 C 409.494 237.334, 412.184 241.072, 412.966 243.515 C 413.667 245.707, 414.551 247.841, 414.928 248.257 C 415.306 248.674, 419.639 247.046, 424.557 244.639 C 433.382 240.321, 441.370 234.856, 449.833 227.345 L 454.165 223.500 438.333 201.943 C 429.625 190.086, 419.049 175.686, 414.831 169.943 C 410.613 164.199, 404.763 156.868, 401.831 153.650 C 395.247 146.426, 382.946 138.119, 372.837 134.071 C 357.051 127.750, 362.817 127.990, 229.185 128.102 C 137.288 128.180, 106.154 128.504, 102 129.427 M 88.110 209.396 C 83.139 212.151, 83.073 212.743, 83.035 255.234 L 83 294.968 85.918 298.234 C 88.405 301.018, 89.509 301.500, 93.395 301.500 C 97.043 301.500, 98.509 300.946, 100.727 298.730 L 103.500 295.959 104 274.399 L 104.500 252.839 120.219 275.237 C 128.865 287.556, 136.900 298.504, 138.074 299.567 C 139.516 300.872, 141.665 301.500, 144.687 301.500 C 148.480 301.500, 149.610 301.001, 152.082 298.234 L 155 294.968 155 254.884 L 155 214.800 151.600 211.400 C 147.109 206.909, 142.436 206.746, 137.766 210.916 L 134.500 213.832 134 235.469 L 133.500 257.107 117.556 234.473 C 108.786 222.024, 100.513 210.975, 99.171 209.920 C 96.359 207.708, 91.565 207.480, 88.110 209.396 M 168.400 211.400 L 165 214.800 165 254.884 L 165 294.968 167.916 298.234 L 170.832 301.500 191.858 301.806 C 209.446 302.061, 213.381 301.854, 215.925 300.539 C 222.379 297.201, 223.584 288.857, 218.365 283.638 C 215.850 281.123, 215.381 281.045, 201.140 280.776 L 186.500 280.500 186.206 273.250 L 185.912 266 196.988 266 C 209.058 266, 213.631 264.793, 216.369 260.883 C 219.010 257.113, 218.465 251.552, 215.085 247.766 L 212.169 244.500 199.085 244.171 L 186 243.841 186 236.421 L 186 229 199.750 228.978 C 211.266 228.959, 213.847 228.675, 215.633 227.228 C 221.114 222.788, 221.510 216.310, 216.600 211.400 L 213.200 208 192.500 208 L 171.800 208 168.400 211.400 M 233.313 209.176 C 229.224 210.265, 226 214.378, 226 218.507 C 226 223.674, 244.732 295.163, 246.826 297.985 C 249.525 301.623, 255.094 302.802, 259.548 300.678 C 263.653 298.721, 263.657 298.714, 274.052 270.272 C 278.192 258.942, 281.752 250.592, 282.143 251.290 C 282.527 251.976, 286.459 262.429, 290.881 274.519 C 299.781 298.847, 301.802 302, 308.500 302 C 310.874 302, 312.935 301.133, 315.032 299.250 C 317.893 296.682, 318.753 293.955, 328.046 258 C 334.190 234.230, 337.788 218.502, 337.450 216.891 C 336.796 213.772, 332.443 209.500, 329.092 208.688 C 326.257 208.001, 321.185 209.943, 318.844 212.612 C 317.933 213.650, 314.816 223.675, 311.917 234.888 C 307.620 251.508, 306.478 254.834, 305.738 252.888 C 305.238 251.575, 301.936 242.625, 298.399 233 C 294.863 223.375, 291.430 214.449, 290.770 213.165 C 289.273 210.250, 285.045 208, 281.065 208 C 275.124 208, 272.657 211.788, 265.112 232.500 C 261.305 242.950, 257.846 252.362, 257.425 253.415 C 256.891 254.750, 255.094 249.247, 251.486 235.227 C 247.217 218.643, 244.214 210, 242.720 210 C 242.592 210, 241.140 209.624, 239.493 209.164 C 237.847 208.704, 235.066 208.710, 233.313 209.176" stroke="none" fill="#fbe363" fill-rule="evenodd"/></svg>