<svg xmlns="http://www.w3.org/2000/svg" xmlns:xlink="http://www.w3.org/1999/xlink" width="1000" zoomAndPan="magnify" viewBox="0 0 750 749.999995" height="1000" preserveAspectRatio="xMidYMid meet" version="1.0"><path fill="#007aa5" d="M 579.410156 263.3125 L 557.882812 263.3125 C 560.308594 224.953125 562.617188 121.933594 503.378906 55.214844 C 471.65625 19.496094 428.496094 2.460938 375.074219 2.460938 C 375.035156 2.460938 374.988281 2.460938 374.957031 2.460938 C 319.21875 2.460938 274.324219 20.132812 241.535156 57.042969 C 182.058594 123.996094 183.898438 232.625 186.203125 263.3125 L 170.546875 263.3125 C 130.664062 263.3125 97.027344 295.636719 97.027344 335.507812 L 97.027344 667.757812 C 97.027344 707.628906 130.65625 738.984375 170.546875 738.984375 L 579.410156 738.984375 C 619.292969 738.984375 649.582031 707.628906 649.582031 667.757812 L 649.582031 335.507812 C 649.582031 295.636719 619.292969 263.3125 579.410156 263.3125 Z M 425.601562 623.902344 L 330.671875 623.902344 L 345.78125 517.972656 C 323.011719 507.019531 307.164062 483.242188 307.164062 456.28125 C 307.164062 418.828125 337.53125 388.101562 374.980469 388.101562 C 412.433594 388.101562 442.792969 418.273438 442.792969 455.722656 C 442.792969 480.863281 428.9375 503.964844 408.601562 515.648438 Z M 492.582031 263.3125 L 251.511719 263.3125 C 249.984375 247.96875 244.464844 149.722656 290.335938 98.273438 C 310.515625 75.640625 338.214844 63.839844 375.003906 63.839844 C 375.035156 63.839844 375.050781 63.839844 375.082031 63.839844 C 409.5 63.839844 435.515625 75.027344 454.59375 96.445312 C 500.25 147.695312 494.148438 247.96875 492.582031 263.3125 Z M 492.582031 263.3125 " fill-opacity="1" fill-rule="nonzero"/></svg>