<svg xmlns="http://www.w3.org/2000/svg" xmlns:xlink="http://www.w3.org/1999/xlink" width="500" zoomAndPan="magnify" viewBox="0 0 375 374.999991" height="500" preserveAspectRatio="xMidYMid meet" version="1.0"><path fill="#ffffff" d="M 163.164062 357.953125 C 162.488281 357.957031 161.816406 357.898438 161.148438 357.78125 C 160.484375 357.664062 159.832031 357.492188 159.195312 357.257812 C 158.5625 357.027344 157.949219 356.742188 157.367188 356.402344 C 156.78125 356.0625 156.230469 355.671875 155.714844 355.234375 C 155.199219 354.796875 154.726562 354.320312 154.292969 353.796875 C 153.863281 353.277344 153.480469 352.722656 153.148438 352.132812 C 152.816406 351.542969 152.535156 350.929688 152.3125 350.292969 C 152.085938 349.652344 151.921875 349 151.8125 348.332031 L 146.5 316.628906 L 125.210938 307.773438 L 99.035156 326.445312 C 97.039062 327.90625 94.800781 328.640625 92.324219 328.640625 C 90.785156 328.640625 89.308594 328.34375 87.890625 327.746094 C 86.472656 327.152344 85.222656 326.308594 84.144531 325.210938 L 49.773438 290.820312 C 49.289062 290.34375 48.855469 289.828125 48.464844 289.277344 C 48.074219 288.722656 47.734375 288.136719 47.449219 287.523438 C 47.160156 286.910156 46.929688 286.273438 46.757812 285.621094 C 46.582031 284.964844 46.464844 284.300781 46.410156 283.625 C 46.355469 282.949219 46.359375 282.273438 46.421875 281.597656 C 46.488281 280.925781 46.609375 280.261719 46.792969 279.609375 C 46.972656 278.953125 47.210938 278.324219 47.503906 277.710938 C 47.800781 277.101562 48.144531 276.523438 48.542969 275.972656 L 67.292969 249.738281 L 58.429688 228.480469 L 26.652344 223.199219 C 25.984375 223.089844 25.332031 222.921875 24.691406 222.699219 C 24.054688 222.472656 23.441406 222.195312 22.851562 221.863281 C 22.261719 221.527344 21.707031 221.144531 21.1875 220.714844 C 20.664062 220.28125 20.1875 219.808594 19.75 219.292969 C 19.3125 218.773438 18.925781 218.222656 18.585938 217.636719 C 18.246094 217.050781 17.960938 216.441406 17.730469 215.804688 C 17.5 215.167969 17.328125 214.519531 17.210938 213.851562 C 17.097656 213.183594 17.042969 212.511719 17.046875 211.835938 L 17.046875 163.164062 C 17.042969 162.488281 17.101562 161.816406 17.21875 161.148438 C 17.335938 160.484375 17.507812 159.832031 17.742188 159.195312 C 17.972656 158.5625 18.257812 157.949219 18.597656 157.367188 C 18.9375 156.78125 19.328125 156.230469 19.765625 155.714844 C 20.203125 155.199219 20.679688 154.726562 21.203125 154.292969 C 21.722656 153.863281 22.277344 153.480469 22.867188 153.148438 C 23.457031 152.816406 24.070312 152.535156 24.707031 152.3125 C 25.347656 152.085938 26 151.921875 26.667969 151.8125 L 58.371094 146.5 L 67.226562 125.210938 L 48.554688 99.035156 C 48.15625 98.484375 47.8125 97.902344 47.515625 97.292969 C 47.222656 96.679688 46.980469 96.046875 46.800781 95.394531 C 46.617188 94.742188 46.492188 94.078125 46.429688 93.402344 C 46.363281 92.726562 46.359375 92.050781 46.414062 91.371094 C 46.46875 90.695312 46.585938 90.03125 46.757812 89.375 C 46.933594 88.71875 47.160156 88.082031 47.449219 87.46875 C 47.734375 86.851562 48.074219 86.265625 48.464844 85.710938 C 48.855469 85.15625 49.289062 84.640625 49.773438 84.160156 L 84.179688 49.773438 C 84.652344 49.289062 85.167969 48.851562 85.71875 48.460938 C 86.273438 48.066406 86.855469 47.726562 87.46875 47.441406 C 88.082031 47.152344 88.714844 46.921875 89.371094 46.746094 C 90.023438 46.570312 90.691406 46.457031 91.363281 46.398438 C 92.039062 46.34375 92.714844 46.347656 93.390625 46.414062 C 94.0625 46.476562 94.726562 46.601562 95.378906 46.785156 C 96.03125 46.964844 96.664062 47.207031 97.273438 47.5 C 97.882812 47.796875 98.460938 48.144531 99.007812 48.542969 L 125.210938 67.230469 L 146.519531 58.378906 L 151.8125 26.671875 C 151.917969 26.003906 152.085938 25.351562 152.308594 24.710938 C 152.53125 24.070312 152.808594 23.457031 153.140625 22.867188 C 153.472656 22.277344 153.855469 21.722656 154.285156 21.199219 C 154.71875 20.675781 155.191406 20.199219 155.707031 19.757812 C 156.222656 19.320312 156.773438 18.933594 157.359375 18.59375 C 157.945312 18.253906 158.558594 17.96875 159.191406 17.734375 C 159.828125 17.503906 160.480469 17.328125 161.148438 17.214844 C 161.816406 17.097656 162.488281 17.042969 163.164062 17.046875 L 211.835938 17.046875 C 212.511719 17.042969 213.183594 17.101562 213.851562 17.21875 C 214.515625 17.335938 215.167969 17.507812 215.804688 17.742188 C 216.4375 17.972656 217.050781 18.257812 217.632812 18.597656 C 218.21875 18.9375 218.769531 19.328125 219.285156 19.765625 C 219.800781 20.203125 220.277344 20.679688 220.707031 21.203125 C 221.136719 21.722656 221.519531 22.277344 221.851562 22.867188 C 222.1875 23.457031 222.464844 24.070312 222.691406 24.707031 C 222.914062 25.347656 223.082031 26 223.191406 26.667969 L 228.5 58.371094 L 249.789062 67.226562 L 275.964844 48.554688 C 276.515625 48.15625 277.09375 47.804688 277.707031 47.507812 C 278.320312 47.210938 278.953125 46.96875 279.605469 46.785156 C 280.261719 46.601562 280.925781 46.476562 281.605469 46.410156 C 282.28125 46.347656 282.960938 46.339844 283.636719 46.398438 C 284.316406 46.453125 284.980469 46.570312 285.640625 46.746094 C 286.296875 46.921875 286.933594 47.152344 287.546875 47.441406 C 288.164062 47.730469 288.75 48.074219 289.304688 48.46875 C 289.859375 48.863281 290.371094 49.300781 290.847656 49.789062 L 325.226562 84.179688 C 325.710938 84.65625 326.144531 85.171875 326.535156 85.722656 C 326.925781 86.277344 327.265625 86.863281 327.550781 87.476562 C 327.839844 88.089844 328.070312 88.726562 328.242188 89.378906 C 328.417969 90.035156 328.535156 90.699219 328.589844 91.375 C 328.644531 92.050781 328.640625 92.726562 328.578125 93.402344 C 328.511719 94.074219 328.390625 94.738281 328.207031 95.390625 C 328.027344 96.046875 327.789062 96.675781 327.496094 97.289062 C 327.199219 97.898438 326.855469 98.476562 326.457031 99.027344 L 307.769531 125.210938 L 316.621094 146.519531 L 348.328125 151.8125 C 348.996094 151.917969 349.648438 152.085938 350.289062 152.308594 C 350.925781 152.53125 351.542969 152.808594 352.132812 153.140625 C 352.71875 153.476562 353.277344 153.855469 353.796875 154.289062 C 354.320312 154.71875 354.800781 155.191406 355.238281 155.710938 C 355.675781 156.226562 356.0625 156.777344 356.402344 157.363281 C 356.742188 157.945312 357.027344 158.558594 357.261719 159.195312 C 357.492188 159.832031 357.664062 160.480469 357.78125 161.148438 C 357.898438 161.816406 357.953125 162.488281 357.949219 163.164062 L 357.949219 211.835938 C 357.953125 212.511719 357.894531 213.183594 357.777344 213.851562 C 357.660156 214.515625 357.484375 215.167969 357.253906 215.804688 C 357.023438 216.4375 356.738281 217.050781 356.394531 217.632812 C 356.054688 218.21875 355.667969 218.769531 355.230469 219.285156 C 354.792969 219.800781 354.3125 220.277344 353.792969 220.707031 C 353.269531 221.136719 352.714844 221.519531 352.128906 221.851562 C 351.539062 222.1875 350.925781 222.464844 350.285156 222.691406 C 349.648438 222.914062 348.996094 223.082031 348.328125 223.191406 L 316.566406 228.472656 L 307.703125 249.730469 L 326.453125 275.964844 C 326.851562 276.515625 327.195312 277.09375 327.488281 277.707031 C 327.78125 278.320312 328.019531 278.949219 328.199219 279.605469 C 328.382812 280.257812 328.503906 280.921875 328.566406 281.597656 C 328.632812 282.273438 328.636719 282.949219 328.578125 283.625 C 328.523438 284.300781 328.410156 284.964844 328.234375 285.621094 C 328.0625 286.277344 327.832031 286.910156 327.542969 287.527344 C 327.257812 288.140625 326.921875 288.726562 326.53125 289.28125 C 326.140625 289.835938 325.707031 290.351562 325.222656 290.828125 L 290.820312 325.226562 C 289.753906 326.316406 288.515625 327.15625 287.109375 327.746094 C 285.703125 328.335938 284.238281 328.632812 282.714844 328.636719 C 280.234375 328.628906 277.988281 327.902344 275.972656 326.453125 L 249.738281 307.703125 L 228.480469 316.566406 L 223.199219 348.34375 C 223.089844 349.011719 222.921875 349.664062 222.699219 350.304688 C 222.476562 350.941406 222.195312 351.558594 221.863281 352.144531 C 221.53125 352.734375 221.148438 353.289062 220.714844 353.8125 C 220.285156 354.332031 219.808594 354.8125 219.292969 355.25 C 218.777344 355.6875 218.226562 356.074219 217.640625 356.414062 C 217.054688 356.753906 216.441406 357.039062 215.804688 357.269531 C 215.171875 357.5 214.519531 357.671875 213.851562 357.789062 C 213.183594 357.902344 212.511719 357.957031 211.835938 357.953125 Z M 163.164062 357.953125 " fill-opacity="1" fill-rule="nonzero"/><path fill="#6e96f9" d="M 255.683594 187.5 C 255.683594 188.617188 255.65625 189.730469 255.601562 190.84375 C 255.546875 191.960938 255.460938 193.074219 255.351562 194.183594 C 255.242188 195.292969 255.109375 196.402344 254.945312 197.503906 C 254.78125 198.609375 254.589844 199.707031 254.371094 200.800781 C 254.152344 201.894531 253.910156 202.984375 253.636719 204.066406 C 253.367188 205.148438 253.070312 206.222656 252.746094 207.292969 C 252.421875 208.359375 252.070312 209.417969 251.695312 210.46875 C 251.320312 211.519531 250.917969 212.5625 250.492188 213.59375 C 250.066406 214.621094 249.613281 215.644531 249.136719 216.652344 C 248.660156 217.660156 248.15625 218.65625 247.632812 219.640625 C 247.105469 220.625 246.554688 221.59375 245.980469 222.550781 C 245.40625 223.507812 244.8125 224.453125 244.191406 225.378906 C 243.570312 226.308594 242.929688 227.21875 242.265625 228.117188 C 241.597656 229.011719 240.914062 229.890625 240.207031 230.753906 C 239.496094 231.617188 238.769531 232.460938 238.019531 233.289062 C 237.269531 234.113281 236.5 234.921875 235.710938 235.710938 C 234.921875 236.5 234.113281 237.269531 233.289062 238.019531 C 232.460938 238.769531 231.617188 239.496094 230.753906 240.207031 C 229.890625 240.914062 229.011719 241.597656 228.117188 242.265625 C 227.21875 242.929688 226.308594 243.570312 225.378906 244.191406 C 224.453125 244.8125 223.507812 245.40625 222.550781 245.980469 C 221.59375 246.554688 220.625 247.105469 219.640625 247.632812 C 218.65625 248.15625 217.660156 248.660156 216.652344 249.136719 C 215.644531 249.613281 214.621094 250.066406 213.59375 250.492188 C 212.5625 250.917969 211.519531 251.320312 210.46875 251.695312 C 209.417969 252.070312 208.359375 252.421875 207.292969 252.746094 C 206.222656 253.070312 205.148438 253.367188 204.066406 253.636719 C 202.984375 253.910156 201.894531 254.152344 200.800781 254.371094 C 199.707031 254.589844 198.609375 254.78125 197.503906 254.945312 C 196.402344 255.109375 195.292969 255.242188 194.183594 255.351562 C 193.074219 255.460938 191.960938 255.542969 190.84375 255.601562 C 189.730469 255.65625 188.617188 255.683594 187.5 255.683594 C 186.382812 255.683594 185.269531 255.65625 184.15625 255.601562 C 183.039062 255.546875 181.925781 255.460938 180.816406 255.351562 C 179.707031 255.242188 178.597656 255.109375 177.496094 254.945312 C 176.390625 254.78125 175.292969 254.589844 174.199219 254.371094 C 173.105469 254.152344 172.015625 253.910156 170.933594 253.636719 C 169.851562 253.367188 168.777344 253.070312 167.707031 252.746094 C 166.640625 252.421875 165.582031 252.070312 164.53125 251.695312 C 163.480469 251.320312 162.4375 250.917969 161.40625 250.492188 C 160.378906 250.066406 159.355469 249.613281 158.347656 249.136719 C 157.339844 248.660156 156.34375 248.15625 155.359375 247.632812 C 154.375 247.105469 153.40625 246.554688 152.449219 245.980469 C 151.492188 245.40625 150.546875 244.8125 149.621094 244.191406 C 148.691406 243.570312 147.78125 242.929688 146.882812 242.265625 C 145.988281 241.597656 145.109375 240.914062 144.246094 240.207031 C 143.382812 239.496094 142.539062 238.769531 141.710938 238.019531 C 140.886719 237.269531 140.078125 236.5 139.289062 235.710938 C 138.5 234.921875 137.730469 234.113281 136.980469 233.289062 C 136.230469 232.460938 135.503906 231.617188 134.792969 230.753906 C 134.085938 229.890625 133.402344 229.011719 132.734375 228.117188 C 132.070312 227.21875 131.429688 226.308594 130.808594 225.378906 C 130.1875 224.453125 129.59375 223.507812 129.019531 222.550781 C 128.445312 221.59375 127.894531 220.625 127.367188 219.640625 C 126.84375 218.65625 126.339844 217.660156 125.863281 216.652344 C 125.386719 215.644531 124.933594 214.621094 124.507812 213.59375 C 124.082031 212.5625 123.679688 211.519531 123.304688 210.46875 C 122.929688 209.417969 122.578125 208.359375 122.253906 207.292969 C 121.929688 206.222656 121.632812 205.148438 121.363281 204.066406 C 121.089844 202.984375 120.847656 201.894531 120.628906 200.800781 C 120.410156 199.707031 120.21875 198.609375 120.054688 197.503906 C 119.890625 196.402344 119.753906 195.292969 119.644531 194.183594 C 119.539062 193.074219 119.453125 191.960938 119.398438 190.84375 C 119.34375 189.730469 119.316406 188.617188 119.316406 187.5 C 119.316406 186.382812 119.34375 185.269531 119.398438 184.15625 C 119.453125 183.039062 119.539062 181.925781 119.648438 180.816406 C 119.753906 179.707031 119.890625 178.597656 120.054688 177.496094 C 120.21875 176.390625 120.410156 175.292969 120.628906 174.199219 C 120.847656 173.105469 121.089844 172.015625 121.363281 170.933594 C 121.632812 169.851562 121.929688 168.777344 122.253906 167.707031 C 122.578125 166.640625 122.929688 165.582031 123.304688 164.53125 C 123.679688 163.480469 124.082031 162.4375 124.507812 161.40625 C 124.933594 160.378906 125.386719 159.355469 125.863281 158.347656 C 126.339844 157.339844 126.84375 156.34375 127.367188 155.359375 C 127.894531 154.375 128.445312 153.40625 129.019531 152.449219 C 129.59375 151.492188 130.1875 150.546875 130.808594 149.621094 C 131.429688 148.691406 132.070312 147.78125 132.734375 146.882812 C 133.402344 145.988281 134.085938 145.109375 134.792969 144.246094 C 135.503906 143.382812 136.230469 142.539062 136.980469 141.710938 C 137.730469 140.886719 138.5 140.078125 139.289062 139.289062 C 140.078125 138.5 140.886719 137.730469 141.710938 136.980469 C 142.539062 136.230469 143.382812 135.503906 144.246094 134.792969 C 145.109375 134.085938 145.988281 133.402344 146.882812 132.734375 C 147.78125 132.070312 148.691406 131.429688 149.621094 130.808594 C 150.546875 130.1875 151.492188 129.59375 152.449219 129.019531 C 153.40625 128.445312 154.375 127.894531 155.359375 127.367188 C 156.34375 126.84375 157.339844 126.339844 158.347656 125.863281 C 159.355469 125.386719 160.378906 124.933594 161.40625 124.507812 C 162.4375 124.082031 163.480469 123.679688 164.53125 123.304688 C 165.582031 122.929688 166.640625 122.578125 167.707031 122.253906 C 168.777344 121.929688 169.851562 121.632812 170.933594 121.363281 C 172.015625 121.089844 173.105469 120.847656 174.199219 120.628906 C 175.292969 120.410156 176.390625 120.21875 177.496094 120.054688 C 178.597656 119.890625 179.707031 119.757812 180.816406 119.648438 C 181.925781 119.535156 183.039062 119.453125 184.15625 119.398438 C 185.269531 119.34375 186.382812 119.316406 187.5 119.316406 C 188.617188 119.316406 189.730469 119.34375 190.84375 119.398438 C 191.960938 119.453125 193.074219 119.535156 194.183594 119.648438 C 195.292969 119.757812 196.402344 119.890625 197.503906 120.054688 C 198.609375 120.21875 199.707031 120.410156 200.800781 120.628906 C 201.894531 120.847656 202.984375 121.089844 204.066406 121.363281 C 205.148438 121.632812 206.222656 121.929688 207.292969 122.253906 C 208.359375 122.578125 209.417969 122.929688 210.46875 123.304688 C 211.519531 123.679688 212.5625 124.082031 213.59375 124.507812 C 214.621094 124.933594 215.644531 125.386719 216.652344 125.863281 C 217.660156 126.339844 218.65625 126.84375 219.640625 127.367188 C 220.625 127.894531 221.59375 128.445312 222.550781 129.019531 C 223.507812 129.59375 224.453125 130.1875 225.378906 130.808594 C 226.308594 131.429688 227.21875 132.070312 228.117188 132.734375 C 229.011719 133.402344 229.890625 134.085938 230.753906 134.792969 C 231.617188 135.503906 232.460938 136.230469 233.289062 136.980469 C 234.113281 137.730469 234.921875 138.5 235.710938 139.289062 C 236.5 140.078125 237.269531 140.886719 238.019531 141.710938 C 238.769531 142.539062 239.496094 143.382812 240.207031 144.246094 C 240.914062 145.109375 241.597656 145.988281 242.265625 146.882812 C 242.929688 147.78125 243.570312 148.691406 244.191406 149.621094 C 244.8125 150.546875 245.40625 151.492188 245.980469 152.449219 C 246.554688 153.40625 247.105469 154.375 247.632812 155.359375 C 248.15625 156.34375 248.660156 157.339844 249.136719 158.347656 C 249.613281 159.355469 250.066406 160.378906 250.492188 161.40625 C 250.917969 162.4375 251.320312 163.480469 251.695312 164.53125 C 252.070312 165.582031 252.421875 166.640625 252.746094 167.707031 C 253.070312 168.777344 253.367188 169.851562 253.636719 170.933594 C 253.910156 172.015625 254.152344 173.105469 254.371094 174.199219 C 254.589844 175.292969 254.78125 176.390625 254.945312 177.496094 C 255.109375 178.597656 255.242188 179.707031 255.351562 180.816406 C 255.460938 181.925781 255.542969 183.039062 255.601562 184.15625 C 255.65625 185.269531 255.683594 186.382812 255.683594 187.5 Z M 255.683594 187.5 " fill-opacity="1" fill-rule="nonzero"/><path fill="#274193" d="M 187.5 102.273438 C 186.105469 102.273438 184.710938 102.308594 183.316406 102.375 C 181.925781 102.445312 180.535156 102.546875 179.144531 102.683594 C 177.757812 102.820312 176.375 102.992188 174.996094 103.195312 C 173.613281 103.398438 172.242188 103.636719 170.871094 103.910156 C 169.503906 104.183594 168.144531 104.488281 166.792969 104.828125 C 165.4375 105.164062 164.09375 105.539062 162.761719 105.941406 C 161.425781 106.347656 160.101562 106.785156 158.789062 107.253906 C 157.472656 107.726562 156.171875 108.226562 154.886719 108.761719 C 153.597656 109.292969 152.320312 109.859375 151.0625 110.457031 C 149.800781 111.050781 148.554688 111.679688 147.324219 112.335938 C 146.09375 112.992188 144.878906 113.679688 143.683594 114.398438 C 142.488281 115.113281 141.308594 115.859375 140.148438 116.636719 C 138.992188 117.410156 137.851562 118.214844 136.730469 119.042969 C 135.609375 119.875 134.511719 120.734375 133.433594 121.617188 C 132.355469 122.503906 131.296875 123.414062 130.265625 124.351562 C 129.230469 125.289062 128.222656 126.25 127.234375 127.234375 C 126.25 128.222656 125.289062 129.230469 124.351562 130.265625 C 123.414062 131.296875 122.503906 132.355469 121.617188 133.433594 C 120.734375 134.511719 119.875 135.609375 119.042969 136.730469 C 118.214844 137.851562 117.410156 138.992188 116.636719 140.148438 C 115.859375 141.308594 115.113281 142.488281 114.398438 143.683594 C 113.679688 144.878906 112.992188 146.09375 112.335938 147.324219 C 111.679688 148.554688 111.050781 149.800781 110.457031 151.0625 C 109.859375 152.320312 109.292969 153.597656 108.761719 154.886719 C 108.226562 156.171875 107.726562 157.472656 107.253906 158.789062 C 106.785156 160.101562 106.347656 161.425781 105.941406 162.761719 C 105.539062 164.09375 105.164062 165.4375 104.828125 166.792969 C 104.488281 168.144531 104.183594 169.503906 103.910156 170.871094 C 103.636719 172.242188 103.398438 173.613281 103.195312 174.996094 C 102.992188 176.375 102.820312 177.757812 102.683594 179.144531 C 102.546875 180.535156 102.445312 181.925781 102.375 183.316406 C 102.308594 184.710938 102.273438 186.105469 102.273438 187.5 C 102.273438 188.894531 102.308594 190.289062 102.375 191.683594 C 102.445312 193.074219 102.546875 194.464844 102.683594 195.855469 C 102.820312 197.242188 102.992188 198.625 103.195312 200.003906 C 103.398438 201.386719 103.636719 202.757812 103.910156 204.128906 C 104.183594 205.496094 104.488281 206.855469 104.828125 208.207031 C 105.164062 209.5625 105.539062 210.90625 105.941406 212.238281 C 106.347656 213.574219 106.785156 214.898438 107.253906 216.210938 C 107.726562 217.527344 108.226562 218.828125 108.761719 220.113281 C 109.292969 221.402344 109.859375 222.679688 110.457031 223.9375 C 111.050781 225.199219 111.679688 226.445312 112.335938 227.675781 C 112.992188 228.90625 113.679688 230.121094 114.398438 231.316406 C 115.113281 232.511719 115.859375 233.691406 116.636719 234.851562 C 117.410156 236.007812 118.214844 237.148438 119.042969 238.269531 C 119.875 239.390625 120.734375 240.488281 121.617188 241.566406 C 122.503906 242.644531 123.414062 243.703125 124.351562 244.734375 C 125.289062 245.769531 126.25 246.777344 127.234375 247.765625 C 128.222656 248.75 129.230469 249.710938 130.265625 250.648438 C 131.296875 251.585938 132.355469 252.496094 133.433594 253.382812 C 134.511719 254.265625 135.609375 255.125 136.730469 255.957031 C 137.851562 256.785156 138.992188 257.589844 140.148438 258.363281 C 141.308594 259.140625 142.488281 259.882812 143.683594 260.601562 C 144.878906 261.320312 146.09375 262.007812 147.324219 262.664062 C 148.554688 263.320312 149.800781 263.949219 151.0625 264.542969 C 152.320312 265.140625 153.597656 265.707031 154.886719 266.238281 C 156.171875 266.773438 157.472656 267.273438 158.789062 267.746094 C 160.101562 268.214844 161.425781 268.652344 162.761719 269.058594 C 164.09375 269.460938 165.4375 269.835938 166.792969 270.171875 C 168.144531 270.511719 169.503906 270.816406 170.871094 271.089844 C 172.242188 271.363281 173.613281 271.601562 174.996094 271.804688 C 176.375 272.007812 177.757812 272.179688 179.144531 272.316406 C 180.535156 272.453125 181.925781 272.554688 183.316406 272.625 C 184.710938 272.691406 186.105469 272.726562 187.5 272.726562 C 188.894531 272.726562 190.289062 272.691406 191.683594 272.625 C 193.074219 272.554688 194.464844 272.453125 195.855469 272.316406 C 197.242188 272.179688 198.625 272.007812 200.003906 271.804688 C 201.386719 271.601562 202.757812 271.363281 204.128906 271.089844 C 205.496094 270.816406 206.855469 270.511719 208.207031 270.171875 C 209.5625 269.835938 210.90625 269.460938 212.238281 269.058594 C 213.574219 268.652344 214.898438 268.214844 216.210938 267.746094 C 217.527344 267.273438 218.828125 266.773438 220.113281 266.238281 C 221.402344 265.707031 222.679688 265.140625 223.9375 264.542969 C 225.199219 263.949219 226.445312 263.320312 227.675781 262.664062 C 228.90625 262.007812 230.121094 261.320312 231.316406 260.601562 C 232.511719 259.882812 233.691406 259.140625 234.851562 258.363281 C 236.007812 257.589844 237.148438 256.785156 238.269531 255.957031 C 239.390625 255.125 240.488281 254.265625 241.566406 253.382812 C 242.644531 252.496094 243.703125 251.585938 244.734375 250.648438 C 245.769531 249.710938 246.777344 248.75 247.765625 247.765625 C 248.75 246.777344 249.710938 245.769531 250.648438 244.734375 C 251.585938 243.703125 252.496094 242.644531 253.382812 241.566406 C 254.265625 240.488281 255.125 239.390625 255.957031 238.269531 C 256.785156 237.148438 257.589844 236.007812 258.363281 234.851562 C 259.140625 233.691406 259.882812 232.511719 260.601562 231.316406 C 261.320312 230.121094 262.007812 228.90625 262.664062 227.675781 C 263.320312 226.445312 263.949219 225.199219 264.542969 223.9375 C 265.140625 222.679688 265.707031 221.402344 266.238281 220.113281 C 266.773438 218.828125 267.273438 217.527344 267.746094 216.210938 C 268.214844 214.898438 268.652344 213.574219 269.058594 212.238281 C 269.460938 210.90625 269.835938 209.5625 270.171875 208.207031 C 270.511719 206.855469 270.816406 205.496094 271.089844 204.128906 C 271.363281 202.757812 271.601562 201.386719 271.804688 200.003906 C 272.007812 198.625 272.179688 197.242188 272.316406 195.855469 C 272.453125 194.464844 272.554688 193.074219 272.625 191.683594 C 272.691406 190.289062 272.726562 188.894531 272.726562 187.5 C 272.726562 186.105469 272.691406 184.710938 272.621094 183.320312 C 272.550781 181.925781 272.445312 180.535156 272.308594 179.148438 C 272.167969 177.761719 271.996094 176.378906 271.792969 175 C 271.585938 173.621094 271.347656 172.246094 271.074219 170.878906 C 270.800781 169.511719 270.492188 168.152344 270.152344 166.800781 C 269.8125 165.449219 269.441406 164.105469 269.035156 162.769531 C 268.628906 161.4375 268.191406 160.113281 267.71875 158.800781 C 267.25 157.488281 266.746094 156.1875 266.210938 154.902344 C 265.679688 153.613281 265.113281 152.339844 264.515625 151.078125 C 263.917969 149.816406 263.292969 148.574219 262.632812 147.34375 C 261.976562 146.113281 261.289062 144.902344 260.570312 143.707031 C 259.855469 142.511719 259.109375 141.332031 258.332031 140.175781 C 257.558594 139.015625 256.753906 137.875 255.925781 136.753906 C 255.09375 135.636719 254.234375 134.535156 253.351562 133.460938 C 252.464844 132.382812 251.554688 131.328125 250.617188 130.292969 C 249.683594 129.261719 248.722656 128.25 247.734375 127.265625 C 246.75 126.277344 245.738281 125.316406 244.707031 124.382812 C 243.671875 123.445312 242.617188 122.535156 241.539062 121.648438 C 240.460938 120.765625 239.363281 119.90625 238.246094 119.074219 C 237.125 118.246094 235.984375 117.441406 234.824219 116.667969 C 233.667969 115.890625 232.488281 115.144531 231.292969 114.429688 C 230.097656 113.710938 228.886719 113.023438 227.65625 112.367188 C 226.425781 111.707031 225.183594 111.082031 223.921875 110.484375 C 222.660156 109.886719 221.386719 109.320312 220.097656 108.785156 C 218.8125 108.253906 217.511719 107.75 216.199219 107.28125 C 214.886719 106.808594 213.5625 106.371094 212.230469 105.964844 C 210.894531 105.558594 209.550781 105.1875 208.199219 104.847656 C 206.847656 104.507812 205.488281 104.199219 204.121094 103.925781 C 202.753906 103.652344 201.378906 103.414062 200 103.207031 C 198.621094 103.003906 197.238281 102.832031 195.851562 102.691406 C 194.464844 102.554688 193.074219 102.449219 191.679688 102.378906 C 190.289062 102.308594 188.894531 102.273438 187.5 102.273438 Z M 187.5 238.636719 C 185.824219 238.636719 184.15625 238.554688 182.488281 238.390625 C 180.820312 238.226562 179.167969 237.980469 177.523438 237.652344 C 175.882812 237.328125 174.257812 236.921875 172.65625 236.433594 C 171.054688 235.949219 169.476562 235.382812 167.929688 234.742188 C 166.382812 234.101562 164.871094 233.386719 163.394531 232.597656 C 161.917969 231.808594 160.484375 230.949219 159.089844 230.019531 C 157.699219 229.085938 156.355469 228.089844 155.058594 227.027344 C 153.765625 225.964844 152.523438 224.84375 151.339844 223.660156 C 150.15625 222.472656 149.035156 221.234375 147.972656 219.941406 C 146.910156 218.644531 145.910156 217.300781 144.980469 215.910156 C 144.050781 214.515625 143.191406 213.082031 142.402344 211.605469 C 141.613281 210.128906 140.898438 208.617188 140.257812 207.070312 C 139.613281 205.523438 139.050781 203.945312 138.566406 202.34375 C 138.078125 200.742188 137.671875 199.117188 137.347656 197.476562 C 137.019531 195.832031 136.773438 194.179688 136.609375 192.511719 C 136.445312 190.84375 136.363281 189.175781 136.363281 187.5 C 136.363281 185.824219 136.445312 184.15625 136.609375 182.488281 C 136.773438 180.820312 137.019531 179.167969 137.347656 177.523438 C 137.671875 175.882812 138.078125 174.257812 138.566406 172.65625 C 139.050781 171.054688 139.613281 169.476562 140.257812 167.929688 C 140.898438 166.382812 141.613281 164.871094 142.402344 163.394531 C 143.191406 161.917969 144.050781 160.484375 144.980469 159.089844 C 145.910156 157.699219 146.910156 156.355469 147.972656 155.058594 C 149.035156 153.765625 150.15625 152.523438 151.339844 151.339844 C 152.523438 150.15625 153.765625 149.035156 155.058594 147.972656 C 156.355469 146.910156 157.699219 145.910156 159.089844 144.980469 C 160.484375 144.050781 161.917969 143.191406 163.394531 142.402344 C 164.871094 141.613281 166.382812 140.898438 167.929688 140.257812 C 169.476562 139.613281 171.054688 139.050781 172.65625 138.566406 C 174.257812 138.078125 175.882812 137.671875 177.523438 137.347656 C 179.167969 137.019531 180.820312 136.773438 182.488281 136.609375 C 184.15625 136.445312 185.824219 136.363281 187.5 136.363281 C 189.175781 136.363281 190.84375 136.445312 192.511719 136.609375 C 194.179688 136.773438 195.832031 137.019531 197.476562 137.347656 C 199.117188 137.671875 200.742188 138.078125 202.34375 138.566406 C 203.945312 139.050781 205.523438 139.613281 207.070312 140.257812 C 208.617188 140.898438 210.128906 141.613281 211.605469 142.402344 C 213.082031 143.191406 214.515625 144.050781 215.910156 144.980469 C 217.300781 145.910156 218.644531 146.910156 219.941406 147.972656 C 221.234375 149.035156 222.472656 150.15625 223.660156 151.339844 C 224.84375 152.523438 225.964844 153.765625 227.027344 155.058594 C 228.089844 156.355469 229.085938 157.699219 230.019531 159.089844 C 230.949219 160.484375 231.808594 161.917969 232.597656 163.394531 C 233.386719 164.871094 234.101562 166.382812 234.742188 167.929688 C 235.382812 169.476562 235.949219 171.054688 236.433594 172.65625 C 236.921875 174.257812 237.328125 175.882812 237.652344 177.523438 C 237.980469 179.167969 238.226562 180.820312 238.390625 182.488281 C 238.554688 184.15625 238.636719 185.824219 238.636719 187.5 C 238.632812 189.175781 238.550781 190.84375 238.386719 192.511719 C 238.21875 194.175781 237.972656 195.832031 237.644531 197.472656 C 237.316406 199.113281 236.910156 200.734375 236.421875 202.335938 C 235.933594 203.941406 235.371094 205.515625 234.730469 207.058594 C 234.085938 208.605469 233.371094 210.117188 232.582031 211.59375 C 231.792969 213.070312 230.929688 214.503906 230 215.898438 C 229.070312 217.289062 228.074219 218.632812 227.011719 219.925781 C 225.949219 221.21875 224.828125 222.457031 223.640625 223.640625 C 222.457031 224.828125 221.21875 225.949219 219.925781 227.011719 C 218.632812 228.074219 217.289062 229.070312 215.898438 230 C 214.503906 230.929688 213.070312 231.792969 211.59375 232.582031 C 210.117188 233.371094 208.605469 234.085938 207.058594 234.730469 C 205.515625 235.371094 203.941406 235.933594 202.335938 236.421875 C 200.734375 236.910156 199.113281 237.316406 197.472656 237.644531 C 195.832031 237.972656 194.175781 238.21875 192.511719 238.386719 C 190.84375 238.550781 189.175781 238.632812 187.5 238.636719 Z M 187.5 238.636719 " fill-opacity="1" fill-rule="nonzero"/><path fill="#274193" d="M 351.148438 135 L 328.742188 131.25 L 327.144531 127.40625 L 340.324219 108.925781 C 340.816406 108.246094 341.273438 107.546875 341.703125 106.828125 C 342.128906 106.105469 342.523438 105.367188 342.886719 104.613281 C 343.25 103.855469 343.578125 103.085938 343.875 102.304688 C 344.167969 101.519531 344.425781 100.722656 344.652344 99.914062 C 344.875 99.109375 345.0625 98.292969 345.214844 97.46875 C 345.367188 96.644531 345.484375 95.816406 345.5625 94.980469 C 345.640625 94.148438 345.683594 93.3125 345.6875 92.472656 C 345.691406 91.632812 345.660156 90.796875 345.589844 89.964844 C 345.519531 89.128906 345.414062 88.296875 345.273438 87.472656 C 345.128906 86.644531 344.953125 85.828125 344.738281 85.019531 C 344.523438 84.207031 344.273438 83.410156 343.988281 82.621094 C 343.703125 81.835938 343.382812 81.0625 343.027344 80.300781 C 342.675781 79.542969 342.289062 78.800781 341.867188 78.074219 C 341.449219 77.347656 340.996094 76.644531 340.515625 75.957031 C 340.035156 75.273438 339.523438 74.609375 338.984375 73.96875 C 338.441406 73.328125 337.875 72.710938 337.28125 72.121094 L 302.90625 37.738281 C 302.316406 37.140625 301.699219 36.574219 301.058594 36.03125 C 300.417969 35.492188 299.753906 34.980469 299.070312 34.5 C 298.382812 34.015625 297.675781 33.566406 296.949219 33.144531 C 296.222656 32.726562 295.480469 32.339844 294.722656 31.984375 C 293.960938 31.628906 293.1875 31.308594 292.398438 31.023438 C 291.609375 30.738281 290.8125 30.488281 290 30.273438 C 289.191406 30.058594 288.371094 29.878906 287.546875 29.734375 C 286.71875 29.59375 285.886719 29.484375 285.054688 29.417969 C 284.21875 29.347656 283.378906 29.3125 282.542969 29.320312 C 281.703125 29.324219 280.867188 29.363281 280.03125 29.441406 C 279.195312 29.519531 278.367188 29.636719 277.542969 29.785156 C 276.71875 29.9375 275.902344 30.125 275.09375 30.351562 C 274.285156 30.574219 273.488281 30.832031 272.703125 31.125 C 271.917969 31.421875 271.144531 31.746094 270.390625 32.109375 C 269.632812 32.472656 268.894531 32.867188 268.171875 33.292969 C 267.453125 33.722656 266.75 34.179688 266.070312 34.667969 L 247.59375 47.851562 L 243.75 46.257812 L 240 23.886719 C 239.867188 23.058594 239.695312 22.242188 239.488281 21.429688 C 239.28125 20.617188 239.039062 19.816406 238.761719 19.027344 C 238.484375 18.234375 238.171875 17.457031 237.828125 16.695312 C 237.480469 15.933594 237.101562 15.1875 236.6875 14.457031 C 236.277344 13.726562 235.832031 13.015625 235.359375 12.328125 C 234.882812 11.636719 234.378906 10.96875 233.847656 10.324219 C 233.3125 9.675781 232.75 9.054688 232.164062 8.460938 C 231.574219 7.863281 230.960938 7.292969 230.320312 6.753906 C 229.683594 6.210938 229.019531 5.699219 228.335938 5.214844 C 227.652344 4.730469 226.949219 4.277344 226.222656 3.859375 C 225.5 3.4375 224.757812 3.046875 224 2.691406 C 223.242188 2.335938 222.46875 2.015625 221.679688 1.726562 C 220.894531 1.441406 220.09375 1.1875 219.285156 0.96875 C 218.476562 0.753906 217.660156 0.574219 216.835938 0.429688 C 216.007812 0.28125 215.179688 0.175781 214.34375 0.101562 C 213.511719 0.03125 212.671875 -0.00390625 211.835938 0 L 163.164062 0 C 162.328125 -0.00390625 161.492188 0.03125 160.65625 0.101562 C 159.824219 0.175781 158.992188 0.28125 158.167969 0.425781 C 157.34375 0.570312 156.527344 0.75 155.71875 0.96875 C 154.910156 1.183594 154.113281 1.4375 153.324219 1.722656 C 152.539062 2.011719 151.765625 2.332031 151.007812 2.6875 C 150.25 3.042969 149.507812 3.429688 148.785156 3.847656 C 148.0625 4.269531 147.359375 4.722656 146.671875 5.203125 C 145.988281 5.6875 145.328125 6.199219 144.6875 6.738281 C 144.050781 7.28125 143.4375 7.847656 142.847656 8.445312 C 142.257812 9.039062 141.699219 9.660156 141.164062 10.304688 C 140.628906 10.949219 140.125 11.617188 139.648438 12.304688 C 139.175781 12.996094 138.730469 13.703125 138.320312 14.433594 C 137.90625 15.160156 137.527344 15.90625 137.179688 16.667969 C 136.832031 17.429688 136.519531 18.207031 136.242188 18.996094 C 135.964844 19.785156 135.722656 20.585938 135.515625 21.398438 C 135.308594 22.207031 135.136719 23.027344 135 23.851562 L 131.25 46.257812 L 127.40625 47.855469 L 108.925781 34.675781 C 108.246094 34.183594 107.546875 33.726562 106.828125 33.296875 C 106.105469 32.871094 105.367188 32.476562 104.613281 32.113281 C 103.855469 31.75 103.085938 31.421875 102.304688 31.128906 C 101.519531 30.832031 100.722656 30.574219 99.914062 30.347656 C 99.109375 30.125 98.292969 29.9375 97.46875 29.785156 C 96.644531 29.632812 95.816406 29.515625 94.980469 29.4375 C 94.148438 29.359375 93.3125 29.316406 92.472656 29.3125 C 91.636719 29.308594 90.796875 29.339844 89.964844 29.410156 C 89.128906 29.480469 88.296875 29.585938 87.472656 29.726562 C 86.648438 29.871094 85.828125 30.046875 85.019531 30.261719 C 84.207031 30.476562 83.410156 30.726562 82.621094 31.011719 C 81.835938 31.300781 81.0625 31.617188 80.300781 31.972656 C 79.542969 32.328125 78.800781 32.710938 78.074219 33.132812 C 77.347656 33.550781 76.644531 34.003906 75.957031 34.484375 C 75.273438 34.964844 74.609375 35.476562 73.96875 36.015625 C 73.328125 36.558594 72.714844 37.125 72.121094 37.71875 L 37.738281 72.101562 C 37.140625 72.691406 36.574219 73.308594 36.03125 73.949219 C 35.492188 74.589844 34.980469 75.253906 34.496094 75.9375 C 34.011719 76.625 33.5625 77.332031 33.140625 78.054688 C 32.722656 78.78125 32.335938 79.523438 31.980469 80.285156 C 31.625 81.046875 31.304688 81.820312 31.019531 82.609375 C 30.734375 83.394531 30.480469 84.195312 30.265625 85.007812 C 30.050781 85.816406 29.871094 86.636719 29.730469 87.460938 C 29.585938 88.289062 29.480469 89.121094 29.410156 89.953125 C 29.339844 90.789062 29.308594 91.628906 29.3125 92.464844 C 29.316406 93.304688 29.359375 94.140625 29.4375 94.976562 C 29.515625 95.8125 29.628906 96.640625 29.78125 97.46875 C 29.933594 98.292969 30.121094 99.109375 30.34375 99.917969 C 30.570312 100.726562 30.828125 101.519531 31.121094 102.308594 C 31.417969 103.09375 31.746094 103.863281 32.105469 104.621094 C 32.46875 105.375 32.863281 106.113281 33.292969 106.835938 C 33.71875 107.558594 34.179688 108.257812 34.667969 108.9375 L 47.851562 127.417969 L 46.257812 131.25 L 23.886719 135 C 23.058594 135.132812 22.242188 135.304688 21.429688 135.511719 C 20.617188 135.71875 19.816406 135.960938 19.027344 136.238281 C 18.234375 136.515625 17.457031 136.828125 16.695312 137.171875 C 15.933594 137.519531 15.1875 137.898438 14.457031 138.3125 C 13.726562 138.722656 13.015625 139.167969 12.328125 139.640625 C 11.636719 140.117188 10.96875 140.621094 10.324219 141.152344 C 9.675781 141.6875 9.054688 142.25 8.460938 142.835938 C 7.863281 143.425781 7.292969 144.039062 6.753906 144.679688 C 6.210938 145.316406 5.699219 145.980469 5.214844 146.664062 C 4.730469 147.347656 4.277344 148.050781 3.859375 148.777344 C 3.4375 149.5 3.046875 150.242188 2.691406 151 C 2.335938 151.757812 2.015625 152.53125 1.726562 153.320312 C 1.441406 154.105469 1.1875 154.902344 0.96875 155.714844 C 0.753906 156.523438 0.574219 157.339844 0.429688 158.164062 C 0.28125 158.992188 0.175781 159.820312 0.101562 160.65625 C 0.03125 161.488281 -0.00390625 162.328125 0 163.164062 L 0 211.835938 C -0.00390625 212.671875 0.03125 213.507812 0.101562 214.34375 C 0.175781 215.175781 0.28125 216.007812 0.425781 216.832031 C 0.570312 217.65625 0.75 218.472656 0.96875 219.28125 C 1.183594 220.089844 1.4375 220.886719 1.722656 221.675781 C 2.011719 222.460938 2.332031 223.234375 2.6875 223.992188 C 3.042969 224.75 3.429688 225.492188 3.847656 226.214844 C 4.269531 226.9375 4.722656 227.640625 5.203125 228.328125 C 5.6875 229.011719 6.199219 229.671875 6.738281 230.3125 C 7.28125 230.949219 7.847656 231.5625 8.445312 232.152344 C 9.039062 232.742188 9.660156 233.300781 10.304688 233.835938 C 10.949219 234.371094 11.617188 234.875 12.304688 235.351562 C 12.996094 235.824219 13.703125 236.269531 14.433594 236.679688 C 15.160156 237.09375 15.90625 237.472656 16.667969 237.820312 C 17.429688 238.167969 18.207031 238.480469 18.996094 238.757812 C 19.785156 239.035156 20.585938 239.277344 21.398438 239.484375 C 22.207031 239.691406 23.027344 239.863281 23.851562 240 L 46.324219 243.75 L 47.90625 247.546875 L 34.675781 266.074219 C 34.183594 266.753906 33.726562 267.453125 33.296875 268.171875 C 32.871094 268.894531 32.476562 269.632812 32.113281 270.386719 C 31.75 271.140625 31.421875 271.914062 31.125 272.695312 C 30.832031 273.480469 30.574219 274.277344 30.347656 275.085938 C 30.125 275.890625 29.9375 276.707031 29.785156 277.53125 C 29.632812 278.355469 29.515625 279.183594 29.4375 280.019531 C 29.359375 280.851562 29.316406 281.6875 29.3125 282.527344 C 29.308594 283.363281 29.339844 284.203125 29.410156 285.035156 C 29.480469 285.871094 29.585938 286.703125 29.726562 287.527344 C 29.871094 288.355469 30.046875 289.171875 30.261719 289.980469 C 30.476562 290.792969 30.726562 291.589844 31.011719 292.378906 C 31.296875 293.164062 31.617188 293.9375 31.972656 294.699219 C 32.324219 295.457031 32.710938 296.199219 33.132812 296.925781 C 33.550781 297.652344 34.003906 298.355469 34.484375 299.042969 C 34.964844 299.726562 35.476562 300.390625 36.015625 301.03125 C 36.558594 301.671875 37.125 302.285156 37.71875 302.878906 L 72.101562 337.261719 C 72.691406 337.859375 73.308594 338.425781 73.949219 338.964844 C 74.589844 339.507812 75.253906 340.019531 75.941406 340.5 C 76.625 340.984375 77.332031 341.433594 78.058594 341.855469 C 78.785156 342.273438 79.527344 342.660156 80.285156 343.015625 C 81.046875 343.371094 81.820312 343.6875 82.609375 343.976562 C 83.398438 344.261719 84.195312 344.511719 85.007812 344.726562 C 85.816406 344.941406 86.636719 345.121094 87.460938 345.265625 C 88.289062 345.40625 89.121094 345.511719 89.957031 345.582031 C 90.792969 345.652344 91.628906 345.683594 92.46875 345.679688 C 93.304688 345.675781 94.140625 345.636719 94.976562 345.558594 C 95.8125 345.480469 96.640625 345.363281 97.464844 345.210938 C 98.292969 345.0625 99.109375 344.875 99.914062 344.648438 C 100.722656 344.425781 101.519531 344.167969 102.304688 343.875 C 103.089844 343.578125 103.863281 343.25 104.617188 342.890625 C 105.375 342.527344 106.113281 342.132812 106.835938 341.707031 C 107.558594 341.277344 108.257812 340.820312 108.9375 340.332031 L 127.417969 327.148438 L 131.261719 328.746094 L 135.011719 351.117188 C 135.144531 351.945312 135.316406 352.761719 135.523438 353.574219 C 135.730469 354.386719 135.972656 355.1875 136.25 355.976562 C 136.527344 356.769531 136.839844 357.542969 137.183594 358.308594 C 137.53125 359.070312 137.910156 359.816406 138.324219 360.542969 C 138.734375 361.273438 139.175781 361.984375 139.652344 362.671875 C 140.125 363.363281 140.632812 364.03125 141.164062 364.675781 C 141.699219 365.320312 142.257812 365.941406 142.847656 366.539062 C 143.4375 367.132812 144.050781 367.703125 144.6875 368.246094 C 145.328125 368.789062 145.988281 369.300781 146.671875 369.78125 C 147.355469 370.265625 148.058594 370.71875 148.785156 371.140625 C 149.507812 371.5625 150.25 371.949219 151.007812 372.304688 C 151.765625 372.660156 152.539062 372.984375 153.324219 373.269531 C 154.109375 373.558594 154.90625 373.808594 155.71875 374.027344 C 156.527344 374.246094 157.34375 374.425781 158.167969 374.570312 C 158.992188 374.714844 159.820312 374.824219 160.65625 374.894531 C 161.492188 374.96875 162.328125 375.003906 163.164062 375 L 211.835938 375 C 212.671875 375.003906 213.507812 374.96875 214.34375 374.898438 C 215.175781 374.824219 216.007812 374.71875 216.832031 374.574219 C 217.65625 374.429688 218.472656 374.25 219.28125 374.03125 C 220.089844 373.816406 220.886719 373.5625 221.675781 373.277344 C 222.460938 372.988281 223.234375 372.667969 223.992188 372.3125 C 224.75 371.957031 225.492188 371.570312 226.214844 371.152344 C 226.9375 370.730469 227.640625 370.277344 228.328125 369.796875 C 229.011719 369.3125 229.671875 368.800781 230.3125 368.261719 C 230.949219 367.71875 231.5625 367.152344 232.152344 366.554688 C 232.742188 365.960938 233.300781 365.339844 233.835938 364.695312 C 234.371094 364.050781 234.875 363.382812 235.351562 362.695312 C 235.824219 362.003906 236.269531 361.296875 236.679688 360.566406 C 237.09375 359.839844 237.472656 359.09375 237.820312 358.332031 C 238.167969 357.570312 238.480469 356.792969 238.757812 356.003906 C 239.035156 355.214844 239.277344 354.414062 239.484375 353.601562 C 239.691406 352.792969 239.863281 351.972656 240 351.148438 L 243.75 328.675781 L 247.546875 327.09375 L 266.074219 340.324219 C 266.753906 340.816406 267.453125 341.277344 268.171875 341.703125 C 268.894531 342.132812 269.632812 342.527344 270.386719 342.890625 C 271.140625 343.253906 271.910156 343.582031 272.695312 343.875 C 273.480469 344.171875 274.277344 344.429688 275.085938 344.65625 C 275.890625 344.878906 276.707031 345.066406 277.53125 345.21875 C 278.355469 345.371094 279.183594 345.488281 280.019531 345.566406 C 280.851562 345.644531 281.6875 345.6875 282.527344 345.691406 C 283.367188 345.699219 284.203125 345.664062 285.039062 345.597656 C 285.871094 345.527344 286.703125 345.421875 287.527344 345.277344 C 288.355469 345.136719 289.171875 344.957031 289.980469 344.742188 C 290.792969 344.527344 291.589844 344.277344 292.378906 343.992188 C 293.167969 343.707031 293.941406 343.386719 294.699219 343.03125 C 295.460938 342.679688 296.203125 342.292969 296.925781 341.871094 C 297.652344 341.453125 298.359375 341 299.042969 340.519531 C 299.730469 340.035156 300.390625 339.523438 301.03125 338.984375 C 301.671875 338.445312 302.289062 337.875 302.878906 337.28125 L 337.265625 302.90625 C 337.863281 302.316406 338.429688 301.699219 338.972656 301.058594 C 339.511719 300.417969 340.023438 299.753906 340.507812 299.070312 C 340.988281 298.382812 341.441406 297.679688 341.859375 296.953125 C 342.28125 296.226562 342.667969 295.484375 343.023438 294.722656 C 343.378906 293.964844 343.699219 293.1875 343.984375 292.402344 C 344.269531 291.613281 344.519531 290.8125 344.738281 290.003906 C 344.953125 289.191406 345.132812 288.375 345.273438 287.546875 C 345.417969 286.71875 345.523438 285.890625 345.59375 285.054688 C 345.664062 284.21875 345.695312 283.378906 345.691406 282.542969 C 345.6875 281.703125 345.644531 280.867188 345.566406 280.03125 C 345.488281 279.195312 345.375 278.367188 345.222656 277.542969 C 345.070312 276.71875 344.882812 275.898438 344.660156 275.09375 C 344.433594 274.285156 344.175781 273.488281 343.882812 272.703125 C 343.585938 271.917969 343.257812 271.144531 342.894531 270.390625 C 342.535156 269.632812 342.136719 268.894531 341.710938 268.171875 C 341.28125 267.453125 340.824219 266.75 340.335938 266.070312 L 327.101562 247.542969 L 328.683594 243.746094 L 351.121094 239.996094 C 351.949219 239.863281 352.765625 239.691406 353.578125 239.484375 C 354.390625 239.277344 355.191406 239.035156 355.980469 238.757812 C 356.773438 238.480469 357.546875 238.167969 358.3125 237.820312 C 359.074219 237.476562 359.820312 237.097656 360.546875 236.683594 C 361.277344 236.273438 361.988281 235.828125 362.675781 235.355469 C 363.367188 234.878906 364.035156 234.375 364.679688 233.839844 C 365.328125 233.308594 365.945312 232.746094 366.542969 232.15625 C 367.140625 231.570312 367.707031 230.953125 368.25 230.316406 C 368.792969 229.675781 369.304688 229.015625 369.785156 228.332031 C 370.269531 227.648438 370.722656 226.945312 371.144531 226.21875 C 371.566406 225.496094 371.953125 224.753906 372.308594 223.996094 C 372.664062 223.238281 372.984375 222.464844 373.273438 221.679688 C 373.5625 220.890625 373.8125 220.09375 374.03125 219.285156 C 374.246094 218.476562 374.425781 217.660156 374.570312 216.832031 C 374.71875 216.007812 374.824219 215.179688 374.894531 214.34375 C 374.96875 213.507812 375.003906 212.671875 375 211.835938 L 375 163.164062 C 375.003906 162.328125 374.96875 161.492188 374.898438 160.65625 C 374.824219 159.824219 374.71875 158.992188 374.574219 158.167969 C 374.429688 157.34375 374.25 156.527344 374.03125 155.71875 C 373.816406 154.910156 373.5625 154.113281 373.277344 153.324219 C 372.988281 152.539062 372.667969 151.765625 372.3125 151.007812 C 371.957031 150.25 371.570312 149.507812 371.152344 148.785156 C 370.730469 148.0625 370.277344 147.359375 369.796875 146.671875 C 369.3125 145.988281 368.800781 145.328125 368.261719 144.6875 C 367.71875 144.050781 367.152344 143.4375 366.554688 142.847656 C 365.960938 142.257812 365.339844 141.699219 364.695312 141.164062 C 364.050781 140.628906 363.382812 140.125 362.695312 139.648438 C 362.003906 139.175781 361.296875 138.730469 360.566406 138.320312 C 359.839844 137.90625 359.09375 137.527344 358.332031 137.179688 C 357.570312 136.832031 356.792969 136.519531 356.003906 136.242188 C 355.214844 135.964844 354.414062 135.722656 353.601562 135.515625 C 352.792969 135.308594 351.972656 135.136719 351.148438 135 Z M 340.910156 207.140625 L 313.726562 211.6875 C 312.300781 211.925781 310.929688 212.335938 309.605469 212.925781 C 308.285156 213.515625 307.0625 214.257812 305.929688 215.15625 C 304.796875 216.058594 303.796875 217.085938 302.925781 218.238281 C 302.058594 219.394531 301.347656 220.640625 300.792969 221.972656 L 291.988281 243.238281 C 291.433594 244.574219 291.054688 245.960938 290.855469 247.390625 C 290.652344 248.824219 290.632812 250.257812 290.796875 251.695312 C 290.960938 253.132812 291.304688 254.527344 291.824219 255.878906 C 292.34375 257.226562 293.023438 258.492188 293.863281 259.667969 L 309.859375 282.074219 L 282.0625 309.871094 L 259.660156 293.863281 C 258.480469 293.027344 257.21875 292.347656 255.867188 291.832031 C 254.515625 291.316406 253.121094 290.976562 251.6875 290.8125 C 250.25 290.648438 248.816406 290.664062 247.382812 290.863281 C 245.953125 291.0625 244.566406 291.4375 243.230469 291.988281 L 221.972656 300.792969 C 220.640625 301.347656 219.394531 302.058594 218.238281 302.929688 C 217.085938 303.800781 216.058594 304.800781 215.15625 305.929688 C 214.257812 307.0625 213.515625 308.289062 212.925781 309.609375 C 212.335938 310.929688 211.925781 312.300781 211.6875 313.726562 L 207.140625 340.910156 L 167.859375 340.910156 L 163.328125 313.792969 C 163.089844 312.367188 162.675781 310.992188 162.089844 309.671875 C 161.5 308.347656 160.753906 307.121094 159.851562 305.992188 C 158.953125 304.859375 157.921875 303.859375 156.765625 302.988281 C 155.609375 302.121094 154.363281 301.410156 153.027344 300.859375 L 131.734375 292.019531 C 130.398438 291.46875 129.011719 291.089844 127.578125 290.890625 C 126.144531 290.691406 124.710938 290.671875 123.269531 290.835938 C 121.832031 291 120.4375 291.339844 119.085938 291.859375 C 117.734375 292.375 116.46875 293.054688 115.289062 293.894531 L 92.933594 309.855469 L 65.136719 282.066406 L 81.136719 259.660156 C 81.976562 258.484375 82.65625 257.21875 83.175781 255.871094 C 83.695312 254.519531 84.039062 253.125 84.203125 251.6875 C 84.367188 250.25 84.347656 248.816406 84.144531 247.382812 C 83.945312 245.949219 83.566406 244.566406 83.011719 243.230469 L 74.207031 221.972656 C 73.652344 220.640625 72.941406 219.394531 72.070312 218.238281 C 71.199219 217.085938 70.199219 216.058594 69.070312 215.15625 C 67.9375 214.257812 66.710938 213.515625 65.390625 212.925781 C 64.070312 212.335938 62.699219 211.925781 61.273438 211.6875 L 34.089844 207.140625 L 34.089844 167.859375 L 61.207031 163.328125 C 62.632812 163.089844 64.007812 162.679688 65.332031 162.089844 C 66.652344 161.5 67.878906 160.757812 69.011719 159.855469 C 70.144531 158.953125 71.144531 157.925781 72.015625 156.769531 C 72.886719 155.609375 73.597656 154.363281 74.148438 153.027344 L 82.988281 131.734375 C 83.542969 130.398438 83.921875 129.011719 84.121094 127.578125 C 84.324219 126.144531 84.34375 124.707031 84.179688 123.269531 C 84.015625 121.832031 83.671875 120.4375 83.152344 119.085938 C 82.632812 117.734375 81.953125 116.46875 81.113281 115.289062 L 65.136719 92.933594 L 92.933594 65.136719 L 115.289062 81.097656 C 116.46875 81.941406 117.734375 82.621094 119.085938 83.140625 C 120.4375 83.660156 121.832031 84 123.269531 84.164062 C 124.710938 84.328125 126.144531 84.308594 127.578125 84.109375 C 129.011719 83.90625 130.398438 83.527344 131.734375 82.972656 L 153.027344 74.148438 C 154.363281 73.597656 155.609375 72.886719 156.765625 72.015625 C 157.921875 71.148438 158.953125 70.148438 159.851562 69.015625 C 160.753906 67.882812 161.5 66.65625 162.089844 65.335938 C 162.675781 64.015625 163.089844 62.640625 163.328125 61.214844 L 167.859375 34.089844 L 207.140625 34.089844 L 211.671875 61.207031 C 211.910156 62.632812 212.324219 64.007812 212.910156 65.328125 C 213.5 66.652344 214.246094 67.878906 215.148438 69.007812 C 216.046875 70.140625 217.078125 71.140625 218.234375 72.011719 C 219.390625 72.878906 220.636719 73.589844 221.972656 74.140625 L 243.265625 82.980469 C 244.601562 83.535156 245.988281 83.914062 247.421875 84.113281 C 248.855469 84.316406 250.289062 84.335938 251.730469 84.171875 C 253.167969 84.007812 254.5625 83.664062 255.914062 83.144531 C 257.265625 82.625 258.53125 81.945312 259.710938 81.105469 L 282.066406 65.144531 L 309.863281 92.941406 L 293.902344 115.296875 C 293.058594 116.476562 292.378906 117.742188 291.859375 119.09375 C 291.339844 120.445312 291 121.839844 290.835938 123.277344 C 290.671875 124.714844 290.691406 126.152344 290.890625 127.585938 C 291.09375 129.019531 291.472656 130.40625 292.027344 131.742188 L 300.867188 153.03125 C 301.417969 154.371094 302.128906 155.617188 302.996094 156.773438 C 303.867188 157.929688 304.867188 158.957031 305.996094 159.859375 C 307.128906 160.761719 308.355469 161.507812 309.675781 162.09375 C 311 162.683594 312.371094 163.097656 313.800781 163.335938 L 340.910156 167.859375 Z M 340.910156 207.140625 " fill-opacity="1" fill-rule="nonzero"/></svg>