<svg xmlns="http://www.w3.org/2000/svg" width="512" height="512" viewBox="0 0 512 512" version="1.1"><path d="M 227.500 12.164 C 213.912 13.696, 195.166 17.958, 179.836 23 C 164.990 27.883, 148 35.189, 148 36.689 C 148 37.140, 168.364 57.869, 193.254 82.754 C 238.508 128, 238.508 128, 244.672 128 C 255.144 128, 255.178 127.726, 245.852 118.351 C 237.528 109.984, 237.528 109.984, 247.766 99.746 C 258.004 89.508, 258.004 89.508, 285.244 116.749 C 312.485 143.990, 312.485 143.990, 297.985 158.745 C 283.485 173.500, 283.485 173.500, 318.650 208.392 C 353.815 243.284, 353.815 243.284, 352.387 236.392 C 348.638 218.296, 340.473 202.338, 327.959 188.646 C 321.867 181.979, 321.454 183.255, 333.985 170 C 342.020 161.500, 342.020 161.500, 349.277 169 C 365.498 185.765, 376.679 208.101, 381.584 233.536 C 382.767 239.670, 383.301 247.275, 383.275 257.623 C 383.238 272.746, 383.238 272.746, 429.442 318.942 C 475.646 365.138, 475.646 365.138, 479.870 356.046 C 489.012 336.370, 496.570 309.353, 499.457 286.030 C 501.440 270.006, 501.440 241.994, 499.457 225.970 C 491.680 163.138, 458.256 103.633, 408.500 64.036 C 373.377 36.085, 326.814 16.831, 282.789 12.054 C 271.348 10.812, 238.912 10.877, 227.500 12.164" stroke="none" fill="#52b4fc" fill-rule="evenodd"/><path d="M 145.648 37.399 C 144.991 38.005, 143.788 38.647, 142.976 38.826 C 137.239 40.094, 111.228 57.356, 97.500 69.005 C 87.333 77.633, 72.243 93.188, 64.036 103.500 C 36.085 138.623, 16.831 185.186, 12.054 229.211 C 10.699 241.694, 10.699 270.306, 12.054 282.789 C 16.870 327.175, 35.984 373.144, 64.594 409.147 C 103.561 458.185, 163.493 491.724, 225.970 499.457 C 241.994 501.440, 270.006 501.440, 286.030 499.457 C 331.645 493.811, 377.842 473.720, 413.023 444.228 C 436.734 424.352, 462.696 392.195, 472.734 370.270 C 475.255 364.763, 475.255 364.763, 429.382 318.882 C 404.151 293.647, 383.260 273, 382.958 273 C 382.655 273, 381.852 276.236, 381.174 280.191 C 378.611 295.136, 371.027 313.549, 361.332 328.365 C 355.412 337.411, 336.646 356.174, 327.500 362.191 C 307.626 375.266, 281.756 383.986, 262.809 383.997 C 259.679 383.999, 256.889 384.371, 256.609 384.823 C 256.329 385.276, 259.678 389.203, 264.050 393.550 C 268.423 397.897, 272 401.904, 272 402.455 C 272 403.006, 267.613 407.835, 262.250 413.185 C 252.500 422.913, 252.500 422.913, 225.250 395.713 C 198 368.514, 198 368.514, 225.238 341.262 C 252.476 314.010, 252.476 314.010, 262.738 324.238 C 273.001 334.465, 273.001 334.465, 262.768 344.733 C 252.536 355, 252.536 355, 259.310 355 C 275.599 355, 295.663 348.345, 311.500 337.689 C 319.328 332.422, 331.533 320.160, 336.952 312.119 C 348.201 295.426, 352.997 280.147, 353.741 258.632 C 354.254 243.765, 354.254 243.765, 319.382 208.882 C 300.203 189.697, 283.983 174, 283.339 174 C 282.694 174, 282.003 174.337, 281.804 174.750 C 281.604 175.162, 276.167 180.667, 269.721 186.983 C 258.002 198.466, 258.002 198.466, 247.500 188 C 236.999 177.535, 236.999 177.535, 247.232 167.267 C 257.464 157, 257.464 157, 250.916 157 C 225.868 157, 196.392 171.348, 179.371 191.826 C 162.963 211.566, 155.228 234.406, 156.284 260 C 157.287 284.297, 165.722 305.023, 182.032 323.264 C 187.186 329.029, 187.186 329.029, 180.187 336.764 C 166.707 351.664, 168.276 351.176, 160.579 342.863 C 138.652 319.179, 127 289.023, 127 255.955 C 127 222.660, 139.074 192.032, 161.668 168.015 C 179.952 148.579, 206.643 133.914, 231.317 129.746 C 238.940 128.459, 238.940 128.459, 192.892 82.379 C 158.258 47.721, 146.548 36.572, 145.648 37.399" stroke="none" fill="#3787fc" fill-rule="evenodd"/></svg>