<svg xmlns="http://www.w3.org/2000/svg" xmlns:xlink="http://www.w3.org/1999/xlink" width="500" zoomAndPan="magnify" viewBox="0 0 375 374.999991" height="500" preserveAspectRatio="xMidYMid meet" version="1.0"><path fill="#195c85" d="M 343.75 337.5 L 331.25 337.5 L 331.25 187.5 L 343.75 187.5 Z M 137.5 331.25 L 43.75 331.25 L 43.75 293.75 L 137.5 293.75 Z M 343.75 137.5 L 31.25 137.5 C 30.882812 137.5 30.445312 137.5 30.054688 137.574219 C 13.378906 138.132812 0 151.878906 0 168.75 L 0 343.75 C 0 361.011719 13.988281 375 31.25 375 L 343.75 375 C 361.011719 375 375 361.011719 375 343.75 L 375 168.75 C 375 151.488281 361.011719 137.5 343.75 137.5 " fill-opacity="1" fill-rule="nonzero"/><path fill="#f49e21" d="M 331.25 337.5 L 343.75 337.5 L 343.75 187.5 L 331.25 187.5 L 331.25 337.5 " fill-opacity="1" fill-rule="nonzero"/><path fill="#36afad" d="M 274.753906 137.5 L 306.25 137.5 L 306.25 81.25 L 318.75 81.25 L 318.75 137.5 L 343.75 137.5 L 343.75 72.632812 C 343.75 62.378906 338.941406 53.125 330.640625 47.191406 C 322.242188 41.257812 311.9375 39.746094 302.246094 43.113281 L 230.933594 67.820312 C 235.425781 70.386719 239.671875 73.363281 243.628906 76.683594 C 261.304688 91.503906 273.070312 113.132812 274.753906 137.5 " fill-opacity="1" fill-rule="nonzero"/><path fill="#fdbd40" d="M 306.25 81.25 L 306.25 137.5 L 318.75 137.5 L 318.75 81.25 L 306.25 81.25 " fill-opacity="1" fill-rule="nonzero"/><path fill="#fdbd40" d="M 187.5 75 L 187.5 87.5 C 165.113281 87.5 144.871094 100.757812 135.9375 121.238281 L 124.488281 116.257812 C 135.425781 91.1875 160.179688 75 187.5 75 Z M 100.242188 137.5 L 274.753906 137.5 C 273.070312 113.132812 261.304688 91.503906 243.628906 76.683594 C 239.671875 73.363281 235.425781 70.386719 230.933594 67.820312 C 218.140625 60.425781 203.320312 56.25 187.5 56.25 C 150.804688 56.25 119.3125 78.929688 106.371094 111.058594 C 104.441406 115.820312 102.878906 120.75 101.804688 125.878906 C 101.050781 129.6875 100.511719 133.570312 100.242188 137.5 " fill-opacity="1" fill-rule="nonzero"/><path fill="#f49e21" d="M 187.5 87.5 L 187.5 75 C 160.179688 75 135.425781 91.1875 124.488281 116.257812 L 135.9375 121.238281 C 144.871094 100.757812 165.113281 87.5 187.5 87.5 " fill-opacity="1" fill-rule="nonzero"/><path fill="#f49e21" d="M 43.75 331.25 L 137.5 331.25 L 137.5 293.75 L 43.75 293.75 L 43.75 331.25 " fill-opacity="1" fill-rule="nonzero"/><path fill="#195c85" d="M 125 0 L 112.5 0 L 112.5 62.5 L 125 62.5 L 125 0 " fill-opacity="1" fill-rule="nonzero"/><path fill="#36afad" d="M 68.238281 137.5 L 100.242188 137.5 C 100.511719 133.570312 101.050781 129.6875 101.804688 125.878906 C 102.878906 120.75 104.441406 115.820312 106.371094 111.058594 L 30.054688 137.574219 C 30.445312 137.5 30.882812 137.5 31.25 137.5 L 68.238281 137.5 " fill-opacity="1" fill-rule="nonzero"/><path fill="#195c85" d="M 100 37.5 L 87.5 37.5 L 87.5 87.5 L 100 87.5 L 100 37.5 " fill-opacity="1" fill-rule="nonzero"/></svg>